<svg width="1481" height="1035" viewBox="0 0 1481 1035" fill="none" xmlns="http://www.w3.org/2000/svg">
<g clip-path="url(#clip0_85_4459)">
<path d="M1479.81 710.286C1468.13 710.119 1456.45 709.869 1444.79 709.786C1433.12 709.703 1421.38 709.524 1409.69 709.893C1404.06 710.072 1402.18 708.358 1402.12 702.563C1401.67 659.726 1400.8 616.973 1400.25 574.184C1399.59 521.296 1399.07 468.397 1398.7 415.486C1398.75 410.613 1400.04 405.832 1402.45 401.599C1426.86 359.952 1478.64 273.934 1479.83 272.399V249.791L1474.38 245.031L1479.83 241.461V234.322L1474.49 229.562L1479.83 225.993V216.473C1479.83 216.473 1422.06 134.5 1398.44 100.683C1393.55 93.4009 1395.31 86.8086 1395.31 86.8086M1122.7 86.8086L1143.98 220.602C1143.98 220.602 1136.5 251.706 1133.75 263.629C1132.87 267.425 1131.37 268.163 1127.52 268.187C1123.67 268.211 1113.23 267.568 1113.23 267.568L1112.6 273.018L1130.78 274.743L1157.23 292.663C1157.23 292.663 1177.85 426.778 1181.42 448.541C1181.49 449.62 1181.66 450.688 1181.95 451.73L1182.02 452.17L1182.1 452.242C1182.33 452.928 1182.68 453.568 1183.14 454.134C1185.67 457.192 1192.4 461.952 1192.4 461.952C1192.4 461.952 1221.17 484.929 1224.54 487.725C1227.05 489.772 1227.96 490.378 1227.54 503.634C1227.64 509.155 1224.45 509.714 1222.11 509.584C1219.78 509.453 1160.36 502.635 1160.36 502.635L1230.98 530.657C1230.98 530.657 1231.1 522.209 1230.98 518.758C1230.79 513.391 1232.92 513.118 1237.37 513.653C1243.86 514.427 1258.15 515.343 1258.15 515.343L1290.09 540.509C1290.09 540.509 1288.41 662.832 1288.31 696.328C1288.31 711.797 1289.79 709.179 1274.95 709.726C1270.66 709.881 1268.89 708.62 1268.83 704.122C1268.31 664.498 1268.83 553.527 1268.83 553.527L1260.22 553.206C1260.22 553.206 1260.05 561.107 1260.03 565.105C1259.74 571.304 1253.14 570.566 1253.14 570.566L1200.84 566.664L1200.7 569.043L1254.51 610.69C1254.51 610.69 1260.46 613.677 1260.15 619.627C1259.54 631.3 1260.31 693.21 1260.15 703.491C1260.08 707.906 1256.42 709.857 1251.98 709.762C1248.84 709.691 1239.16 709.548 1239.16 709.548L1246.91 715.331C1292.35 749.442 1337.8 783.552 1383.24 817.663C1415.4 841.771 1447.58 865.854 1479.77 889.914M1240.62 86.7255C1240.11 106.954 1238.67 160.309 1238.67 160.309C1238.67 160.309 1238.26 166.342 1232.36 166.009C1210.3 163.951 1166.1 160.964 1166.1 160.964C1166.1 160.964 1145.86 150.933 1136.5 144.888C1135.47 144.234 1127.84 91.5923 1127.03 86.7255M1369.06 86.7255C1368.49 114.641 1367.81 142.556 1367.47 170.471C1367.4 176.23 1365.54 178.503 1359.76 177.349C1357.65 176.921 1347.52 176.873 1347.52 176.873L1339.65 165.521L1332.11 175.742L1325.24 163.843L1316.73 172.625L1310.78 163.843L1302.97 172.173C1302.97 172.173 1265.35 168.913 1248.37 167.568C1243.96 167.223 1242.52 164.629 1242.6 161.499C1242.98 148.041 1244.11 98.1844 1244.62 86.7136M1227.15 517.461V524.707L1184.86 508.691C1184.86 508.691 1217.74 512.487 1222.79 513.094C1227.84 513.701 1227.14 517.568 1227.14 517.568L1227.15 517.461ZM1259.97 579.265C1259.83 588.189 1259.97 609.096 1259.97 609.096L1208.05 570.412L1254.72 574.338C1254.72 574.338 1260.54 574.374 1259.96 579.372L1259.97 579.265ZM1240.3 223.767C1241.03 210.107 1241.39 196.399 1241.77 182.775C1241.89 178.313 1243.58 176.385 1248.31 176.825C1265.48 178.503 1299.8 181.68 1299.8 181.68L1309.68 195.495L1317.21 183.679L1324.91 196.828L1332.23 184.786L1340.02 197.994L1348.63 186.095C1348.63 186.095 1357.73 186.666 1362.29 186.69C1366.85 186.714 1367.24 189.498 1367.21 193.008C1367 214.914 1367.21 329.848 1367.21 329.848L1358.62 322.768V308.489L1345.74 311.868L1345.65 296.578L1330.33 302.432L1329.13 286.964L1315.53 291.211C1315.53 291.211 1268.52 252.956 1244.99 233.846C1241.64 231.204 1240.07 228.253 1240.3 223.767ZM1290.81 282.811C1290.81 282.811 1258.12 279.729 1246.08 278.813C1241.68 278.467 1239.9 276.433 1240.02 272.018C1240.14 267.604 1239.9 243.234 1239.9 243.234L1290.81 282.811ZM1231.6 175.112C1234.78 175.386 1236.99 176.302 1236.9 180.002C1236.55 193.448 1235.52 225.993 1235.52 225.993L1170.04 170.329C1170.04 170.329 1213.28 173.565 1231.6 175.112ZM1138.39 159.108C1143.41 163.248 1154.36 171.697 1154.36 171.697L1146.15 207.299L1138.39 159.108ZM1145.53 234.143L1151.9 269.686L1137.27 268.317L1145.53 234.143ZM1139.25 275.183L1152.79 276.445L1154.06 285.119L1139.25 275.183ZM1155.66 263.415L1147.66 220.578L1158.06 175.017C1158.06 175.017 1209.4 216.342 1231.86 235.095C1234.03 237.222 1235.31 240.094 1235.43 243.127C1235.67 252.813 1235.03 262.523 1235.05 272.22C1235.05 276.552 1233.21 277.706 1229.26 277.361C1215.85 276.171 1203.07 275.171 1189.7 274.065C1180.82 273.343 1171.94 272.582 1163.08 271.78C1156.36 271.495 1155.71 263.415 1155.71 263.415H1155.66ZM1158.95 277.016C1158.95 277.016 1207.42 281.68 1230.66 284.001C1233.67 284.536 1234.23 286.904 1234.23 289.272C1234.23 291.64 1233.95 301.338 1233.72 308.596C1208.93 301.528 1160.32 286.666 1160.32 286.666L1158.95 277.016ZM1190.79 453.372C1189.52 453.158 1186.45 453.456 1185.84 450.909C1181.57 422.018 1164.01 312.88 1161.4 293.77C1184.76 300.552 1204.26 306.573 1225.85 313.415C1230.61 314.938 1233.95 319.71 1233.82 325.624C1233.29 348.629 1232.78 371.602 1232.28 394.543C1231.89 413.368 1231.47 432.18 1231.28 451.004C1231.28 455.835 1228.16 457.109 1224.88 456.775C1221.59 456.442 1196.32 454.265 1190.84 453.372H1190.79ZM1234.29 510.024C1233.54 509.94 1232.83 509.59 1232.31 509.036C1231.79 508.482 1231.48 507.761 1231.45 507.002C1231.11 502.813 1231.36 493.52 1231.36 493.52L1254.08 511.511C1254.08 511.511 1240.16 510.297 1234.35 510.024H1234.29ZM1290.89 477.301C1290.47 495.733 1289.99 534.655 1289.99 534.655L1195.39 458.965C1195.39 458.965 1282.45 466.652 1284.6 467.009C1291.49 468.139 1291.05 472.185 1290.93 477.301H1290.89ZM1292.02 422.209C1291.93 433.31 1291.46 445.447 1291.34 456.537C1291.34 461.595 1284.28 462.225 1284.28 462.225L1242.41 458.144C1242.41 458.144 1236.46 458.965 1236.46 451.671C1237.51 423.97 1239.33 289.843 1239.33 289.843C1239.33 289.843 1238.86 284.572 1245.15 284.584L1299.37 289.653L1308.63 297.244L1309.22 313.725L1324.69 310.714L1323.99 326.897L1338.98 321.471L1339.13 336.88L1352.44 333.715L1367.18 347.03V459.869L1344.31 491.937C1344.21 480.847 1346.57 470.59 1335.98 470.733H1309.43C1309.43 470.733 1304.67 471.102 1304.96 463.296C1304.78 449.291 1304.96 436.273 1305.37 422.256C1305.37 419.02 1304.9 417.711 1299.08 417.497C1293.56 417.223 1292.1 418.02 1292.06 422.209H1292.02ZM1335.59 503.122L1305.02 544.769C1305.02 541.747 1304.96 539.748 1305.02 539.01C1305.1 530.312 1305.02 498.874 1305.02 485.155C1305.02 481.157 1304.68 478.92 1309.31 478.67C1314.08 478.67 1322 478.67 1328.66 478.67C1338.98 478.598 1334.99 484.786 1335.63 503.099L1335.59 503.122ZM1367.16 700.647C1367.05 709.596 1360.9 709.893 1351.84 709.893C1339.34 709.893 1326.84 709.786 1314.36 709.893C1309.5 709.893 1307.22 708.465 1307.22 703.075C1307 667.294 1305.65 587.654 1305.16 554.11C1318.25 535.881 1365.34 470.471 1367.17 468.199C1367.38 471.78 1368.11 625.671 1367.21 700.564L1367.16 700.647ZM1464.39 226.349L1456.39 232.989L1464.39 239.891L1456.39 248.327L1464.39 255.145V286.178C1464.39 286.178 1398.35 395.043 1397.73 394.876C1397.73 389.224 1396.22 246.673 1395.76 215.378C1395.65 207.822 1396.07 207.323 1403.29 207.906C1422.63 209.453 1464.37 213.748 1464.37 213.748L1456.47 220.007C1458.71 222.03 1464.44 226.266 1464.44 226.266L1464.39 226.349ZM1403.41 201.445C1395.78 200.826 1395.47 196.376 1395.47 196.376V103.229L1467.36 206.514C1467.36 206.514 1416.66 202.444 1403.45 201.361L1403.41 201.445Z" stroke="#00A5FE" stroke-width="2" stroke-miterlimit="10"/>
<path d="M517.272 1032.26L1078.34 709.5H1086.19L707.209 1033.94" stroke="#00A5FE" stroke-width="2" stroke-miterlimit="10"/>
<path d="M1385.05 1033.94L1369.37 1006.41H1455.7V1004.86L1437.94 983.441H1356.31L1345.93 965.212H1422.82L1405.85 944.746H1334.35L1328.3 934.12H1397.09L1381.81 915.712H1317.83L1311.28 904.205H1372.26L1358.47 887.546H1301.81L1296.44 878.134H1350.66L1338.24 863.165H1287.92L1283.09 854.681H1331.18L1320.03 841.235H1275.45L1272.28 835.678H1315.42L1305.42 823.779H1265.41L1261.92 817.663H1300.34L1291.33 806.787H1255.78L1253.32 802.456H1287.84L1279.61 792.544H1247.73L1245.42 788.475H1276.23L1268.87 779.598H1240.3L1236.93 773.648H1263.9L1257.12 765.498H1232.29L1229.07 759.834H1252.43L1246.58 752.777H1225.05L1222.29 747.911H1242.53L1237.77 742.187H1219.01L1216.72 738.177H1234.43L1230.21 733.073H1213.82L1211.44 728.979H1226.91L1223.11 724.529H1208.89L1206.65 720.602H1219.05V719.71L1216.61 716.783H1204.47L1202.27 712.903H1213.4L1210.47 709.334H1200.26L1198.28 705.871H1207.59L1204.98 702.718H1196.48L1194.1 698.565H1190.89L1192.97 702.718H1189.82L1187.85 698.565H1184.6L1186.22 702.718H1140.31L1141.94 698.565H1138.69L1136.71 702.718H1133.56L1135.65 698.565H1132.43L1130.04 702.718H1119.33L1116.82 705.871H1128.4L1126.43 709.334H1114.12L1111.29 712.903H1124.32L1122.12 716.783H1108.2L1105.14 720.602H1119.94L1117.7 724.529H1101.97L1098.32 728.979H1115.16L1112.78 733.073H1095.1L1091.03 738.177H1109.89L1107.6 742.187H1087.93L1083.34 747.911H1104.45L1101.69 752.777H1079.46L1073.81 759.834H1097.62L1094.4 765.498H1069.24L1062.7 773.648H1089.75L1086.38 779.598H1057.97L1050.83 788.475H1081.3L1078.91 792.544H1047.51L1039.59 802.456H1073.28L1070.81 806.787H1036.12L1027.43 817.663H1064.63L1061.14 823.779H1022.52L1012.94 835.774H1054.32L1051.15 841.33H1008.49L997.773 854.776H1043.55L1038.71 863.261H990.988L979.012 878.23H1030.2L1024.84 887.642H971.476L958.167 904.301H1015.38L1008.82 915.807H948.965L934.358 934.131H998.464L992.416 944.757H925.858L909.49 965.224H980.786L970.417 983.453H894.907L876.538 1006.41H957.346L941.679 1033.94M1347.41 1033.94L1334.31 1006.41H1346.12L1359.99 1033.94M1010.82 1033.94L1021.53 1006.41H1305.11L1315.89 1033.94M966.715 1033.94L980.595 1006.41H992.393L980.059 1032.37M1315 944.757H1304.94L1299.9 934.131H1309.65L1315 944.757ZM1193.28 720.567L1194.82 724.493H1131.87L1133.4 720.567H1193.28ZM1134.95 716.747L1136.47 712.868H1190.3L1191.82 716.747H1134.95ZM1196.61 728.944L1198.22 733.037H1128.58L1130.18 728.944H1196.61ZM1200.19 738.142L1201.76 742.152H1124.95L1126.52 738.142H1200.19ZM1204.01 747.875L1205.9 752.742H1120.84L1122.75 747.875H1204.01ZM1208.66 759.774L1210.88 765.438H1115.87L1118.08 759.774H1208.66ZM1214.08 773.589L1216.39 779.538H1110.35L1112.73 773.589H1214.08ZM1219.86 788.391L1221.46 792.461H1105.29L1106.89 788.391H1219.86ZM1225.33 802.373L1227.03 806.704H1099.69L1101.38 802.373H1225.33ZM1231.28 817.58L1233.66 823.696H1093.03L1095.41 817.58H1231.28ZM1238.42 835.69L1240.59 841.247H1086.16L1088.34 835.69H1238.42ZM1245.85 854.729L1249.17 863.213H1077.58L1080.9 854.729H1245.85ZM1255.03 878.182L1258.72 887.594H1068.05L1071.72 878.182H1255.03ZM1265.22 904.229L1269.73 915.736H1057.12L1061.62 904.229H1265.22ZM1276.93 934.143L1281.09 944.769H1045.68L1049.83 934.143H1276.93ZM1300.47 915.736H1291.24L1285.77 904.229H1294.66L1300.47 915.736ZM1286.28 887.594H1277.86L1273.39 878.182H1281.54L1286.28 887.594ZM1273.99 863.213H1266.27L1262.23 854.729H1269.72L1273.99 863.213ZM1262.92 841.271H1255.78L1253.14 835.714H1260.09L1262.92 841.271ZM1254.08 823.72H1247.45L1244.53 817.604H1250.96L1254.08 823.72ZM1245.52 806.728H1239.4L1237.34 802.397H1243.29L1245.52 806.728ZM1238.37 792.449H1232.66L1230.73 788.379H1236.33L1238.37 792.449ZM1231.85 779.503H1226.51L1223.7 773.553H1228.86L1231.85 779.503ZM1224.71 765.426H1219.77L1217.08 759.762H1221.84L1224.71 765.426ZM1218.3 752.706H1213.72L1211.41 747.839H1215.85L1218.3 752.706ZM1212.96 742.116H1208.69L1206.78 738.106H1210.95L1212.96 742.116ZM1208.38 733.001H1204.35L1202.41 728.908H1206.3L1208.38 733.001ZM1204.07 724.458H1200.29L1198.42 720.531H1202.09L1204.07 724.458ZM1200.16 716.711H1196.59L1194.76 712.832H1198.2L1200.16 716.711ZM1194.69 705.835L1196.44 709.298H1193.09L1191.44 705.835H1194.69ZM1187.54 705.835L1188.9 709.298H1137.81L1139.16 705.835H1187.54ZM1132.06 705.835H1135.31L1133.65 709.298H1130.31L1132.06 705.835ZM1128.48 712.832H1131.97L1130.13 716.711H1126.56L1128.48 712.832ZM1124.6 720.531H1128.26L1126.39 724.458H1122.62L1124.6 720.531ZM1120.38 728.86H1124.28L1122.33 732.954H1118.32L1120.38 728.86ZM1115.75 738.058H1119.91L1118.01 742.068H1113.72L1115.75 738.058ZM1110.84 747.792H1115.31L1113 752.658H1108.41L1110.84 747.792ZM1104.89 759.691H1109.65L1106.97 765.474H1102.03L1104.89 759.691ZM1097.93 773.506H1103.1L1100.28 779.455H1094.95L1097.93 773.506ZM1090.47 788.308H1096.07L1094.13 792.378H1088.41L1090.47 788.308ZM1083.4 802.361H1089.35L1087.28 806.692H1081.18L1083.4 802.361ZM1075.74 817.568H1082.16L1079.26 823.684H1072.65L1075.74 817.568ZM1066.62 835.678H1073.56L1070.91 841.235H1063.77L1066.62 835.678ZM1057.09 854.717H1064.58L1060.55 863.201H1052.82L1057.09 854.717ZM1045.28 878.17H1053.4L1048.93 887.582H1040.5L1045.28 878.17ZM1032.19 904.217H1041.08L1035.62 915.724H1026.39L1032.19 904.217ZM1017.12 934.131H1026.87L1021.81 944.757H1011.76L1017.12 934.131ZM992.262 983.453L1001.45 965.224H1012.08L1003.42 983.453H992.262ZM1030.63 983.453L1037.77 965.224H1289.12L1296.27 983.453H1030.63ZM1323.48 983.453L1314.81 965.224H1325.46L1334.63 983.453H1323.48Z" stroke="#00A5FE" stroke-width="2" stroke-miterlimit="10"/>
<path d="M1.91504 1033.94V2.03958H44.1641L966.726 420.721V698.577H1019.21L375.752 1033.94" stroke="#00A5FE" stroke-width="2" stroke-miterlimit="10"/>
<path d="M35.3188 986.392L36.9617 49.4456L951.595 428.563L949.607 702.182L62.1278 1005.74" stroke="#00A5FE" stroke-width="2" stroke-miterlimit="10"/>
<path d="M789.659 455.633V380.895L623.02 315.652V409.798L789.659 455.633Z" stroke="#00A5FE" stroke-width="2" stroke-miterlimit="10"/>
<path d="M61.7354 89.022V250.624L323.837 327.527V198.517L61.7354 89.022Z" stroke="#00A5FE" stroke-width="2" stroke-miterlimit="10"/>
<path d="M598.865 403.158V306.192L349.335 207.965V334.167L598.865 403.158Z" stroke="#00A5FE" stroke-width="2" stroke-miterlimit="10"/>
<path d="M937.001 497.554V440.7L813.801 390.343V462.273L937.001 497.554Z" stroke="#00A5FE" stroke-width="2" stroke-miterlimit="10"/>
<path d="M598.865 419.757L349.335 353.265V473.839L598.865 506.097V419.757Z" stroke="#00A5FE" stroke-width="2" stroke-miterlimit="10"/>
<path d="M62.4614 272.934V434.857L323.836 470.733V346.863L62.4614 272.934Z" stroke="#00A5FE" stroke-width="2" stroke-miterlimit="10"/>
<path d="M623.02 509.203L789.659 530.633V470.328L623.02 426.159V509.203Z" stroke="#00A5FE" stroke-width="2" stroke-miterlimit="10"/>
<path d="M937.001 549.172V507.144L813.801 476.73V533.727L937.001 549.172Z" stroke="#00A5FE" stroke-width="2" stroke-miterlimit="10"/>
<path d="M623.02 607.073L789.659 605.776V543.686L623.02 524.279V607.073Z" stroke="#00A5FE" stroke-width="2" stroke-miterlimit="10"/>
<path d="M937.001 606.073V560.571L813.801 546.495V605.586L937.001 606.073Z" stroke="#00A5FE" stroke-width="2" stroke-miterlimit="10"/>
<path d="M598.865 521.471L349.335 492.27V609.203L598.865 607.251V521.471Z" stroke="#00A5FE" stroke-width="2" stroke-miterlimit="10"/>
<path d="M62.0806 456.942V611.559L323.836 609.393V489.462L62.0806 456.942Z" stroke="#00A5FE" stroke-width="2" stroke-miterlimit="10"/>
<path d="M61.8423 640.759V802.682L323.836 755.431V632.299L61.8423 640.759Z" stroke="#00A5FE" stroke-width="2" stroke-miterlimit="10"/>
<path d="M623.02 704.872L789.659 676.706V618.199L623.02 623.244V704.872Z" stroke="#00A5FE" stroke-width="2" stroke-miterlimit="10"/>
<path d="M937.001 650.802V615.497L813.801 617.473V672.613L937.001 650.802Z" stroke="#00A5FE" stroke-width="2" stroke-miterlimit="10"/>
<path d="M598.865 623.981L349.335 631.573V751.349L598.865 708.953V623.981Z" stroke="#00A5FE" stroke-width="2" stroke-miterlimit="10"/>
<path d="M937.001 693.151V662.237L813.801 685.131V733.441L937.001 693.151Z" stroke="#00A5FE" stroke-width="2" stroke-miterlimit="10"/>
<path d="M61.7114 824.862V978.015L323.836 889.141V774.089L61.7114 824.862Z" stroke="#00A5FE" stroke-width="2" stroke-miterlimit="10"/>
<path d="M349.335 769.71V881.466L598.865 801.742V724.16L349.335 769.71Z" stroke="#00A5FE" stroke-width="2" stroke-miterlimit="10"/>
<path d="M623.02 719.769V794.067L789.659 741.116V689.51L623.02 719.769Z" stroke="#00A5FE" stroke-width="2" stroke-miterlimit="10"/>
</g>
<defs>
<clipPath id="clip0_85_4459">
<rect width="1480.28" height="1034.15" fill="white" transform="translate(0.724609 0.84967)"/>
</clipPath>
</defs>
</svg>
