<svg width="12" height="13" viewBox="0 0 12 13" fill="none" xmlns="http://www.w3.org/2000/svg">
<path d="M6 0C2.69136 0 0 2.71198 0 6.04489C0 9.3778 2.6916 12.0898 6 12.0898C9.30864 12.0898 12 9.3778 12 6.04489C12 2.71198 9.3084 0 6 0ZM6 10.881C3.35304 10.881 1.19976 8.71165 1.19976 6.04489C1.19976 3.37861 3.3528 1.20922 6 1.20922C8.64672 1.20922 10.7998 3.37861 10.7998 6.04489C10.7995 8.71165 8.64648 10.881 6 10.881Z" fill="white"/>
<path d="M4.41935 4.19251C4.64163 3.95512 4.90728 3.76317 5.20175 3.62719C5.50233 3.48807 5.82954 3.41709 6.16031 3.41925C6.58007 3.41925 6.96527 3.52008 7.31639 3.72173C7.66252 3.91894 7.95743 4.19584 8.17703 4.52982L9.03239 3.88543C8.70743 3.43845 8.28521 3.07237 7.79807 2.81524C7.30319 2.55072 6.75695 2.41846 6.16007 2.41846C5.66831 2.41846 5.20607 2.51421 4.77359 2.70619C4.35086 2.89038 3.96693 3.15423 3.64247 3.48357C3.31848 3.81487 3.05983 4.2051 2.88023 4.63355C2.69327 5.07216 2.59991 5.54342 2.59991 6.04563C2.59991 6.54736 2.69327 7.01813 2.88023 7.45796C3.05964 7.88623 3.31832 8.27617 3.64247 8.60697C3.96696 8.93652 4.35086 9.20069 4.77359 9.38531C5.20631 9.57633 5.66855 9.67232 6.16007 9.67232C6.75695 9.67232 7.30295 9.54006 7.79807 9.27529C8.28547 9.01856 8.70778 8.65241 9.03239 8.20511L8.17703 7.56169C7.95706 7.89516 7.66222 8.17175 7.31639 8.36905C6.96527 8.57046 6.58007 8.67129 6.16031 8.67129C5.82953 8.67357 5.50229 8.60258 5.20175 8.46335C4.90724 8.32746 4.64156 8.1355 4.41935 7.89803C4.19663 7.66107 4.01951 7.38276 3.88823 7.06601C3.75695 6.74926 3.69143 6.40857 3.69143 6.04563C3.69143 5.68197 3.75695 5.34176 3.88823 5.02477C4.01951 4.70778 4.19663 4.43044 4.41935 4.19251Z" fill="white"/>
</svg>
