<svg width="79" height="25" viewBox="0 0 79 25" fill="none" xmlns="http://www.w3.org/2000/svg">
<g clip-path="url(#clip0_1_211)">
<path d="M34.7546 20.9971H34.7025V24.6984H36.9829V21.3649H34.7546V20.9971Z" fill="white"/>
<path d="M34.7546 15.6827H36.9829V15.0202H39.1343V12.7856H32.6077V15.0202H34.7025V16.2928H34.7546V15.6827Z" fill="white"/>
<path d="M46.3605 15.6827H48.5912V12.7856H46.3356V16.2928H46.3605V15.6827Z" fill="white"/>
<path d="M42.8278 16.2928H42.8505V12.7856H40.5949V15.6827H42.8278V16.2928Z" fill="white"/>
<path d="M46.3583 20.9971H46.313C46.3033 21.2796 46.2553 21.5594 46.1703 21.8287C46.0534 22.1208 45.8451 22.3664 45.577 22.5279C45.2696 22.7182 44.914 22.8143 44.5534 22.8043C44.2167 22.8146 43.884 22.729 43.5932 22.5576C43.338 22.4052 43.1386 22.1736 43.0248 21.8973C42.9245 21.6076 42.8703 21.3038 42.864 20.9971H42.8278V21.3649H40.6583C40.692 21.8965 40.8089 22.4193 41.0048 22.914C41.3012 23.5356 41.7741 24.0542 42.3636 24.4037C43.0375 24.8121 43.8127 25.0189 44.5987 25C45.1865 25.0117 45.7708 24.9053 46.3175 24.687C46.8191 24.4716 47.2653 24.1434 47.6219 23.7274C47.9721 23.3419 48.2334 22.8832 48.3874 22.3839C48.4712 22.0501 48.5228 21.7088 48.5413 21.3649H46.356L46.3583 20.9971Z" fill="white"/>
<path d="M56.7188 22.1304C56.2568 22.3695 55.5117 22.4891 54.4836 22.4891H53.4396V14.9722H54.2028C55.6008 14.9722 56.6146 15.2859 57.2441 15.9135C57.3616 16.0307 57.4691 16.1576 57.5657 16.2928H60.1179C60.0168 16.0275 59.8964 15.7702 59.7578 15.5228C59.2938 14.6329 58.576 13.9039 57.6971 13.43C56.8637 13.0004 55.588 12.7856 53.8699 12.7856H51.209V24.6893H53.9107C55.44 24.6893 56.5149 24.5926 57.1354 24.3992C57.7842 24.1873 58.3756 23.8268 58.8633 23.3459C59.4148 22.808 59.8424 22.1544 60.1156 21.4312C60.1722 21.285 60.2221 21.1365 60.2673 20.988H57.8148C57.5735 21.4726 57.191 21.8712 56.7188 22.1304Z" fill="white"/>
<path d="M62.5953 20.9971H62.55V24.6984H64.7829V21.5157H62.5953V20.9971Z" fill="white"/>
<path d="M62.5953 15.8335H64.7829V12.7856H62.55V16.2928H62.5953V15.8335Z" fill="white"/>
<path d="M56.909 17.7961C56.7777 17.7346 56.6348 17.7027 56.49 17.7025C56.2613 17.6965 56.0388 17.7781 55.8673 17.9309C55.7247 18.071 55.6249 18.2494 55.5797 18.445H57.414C57.3817 18.2969 57.3184 18.1574 57.2283 18.036C57.1426 17.9313 57.033 17.849 56.909 17.7961Z" fill="#ED1C24"/>
<path d="M48.5912 16.2927V19.889V20.9971H51.209V16.2927H48.5912Z" fill="#ED1C24"/>
<path d="M76.133 20.997C76.5512 20.3292 76.7662 19.5523 76.7513 18.7625C76.7575 18.2258 76.6614 17.6929 76.4682 17.1928C76.374 16.9528 76.2556 16.7231 76.1149 16.5074C76.0674 16.4343 76.0153 16.3657 75.9632 16.2949H64.835V20.9993H76.1421L76.133 20.997ZM71.0717 17.4602H71.3887V17.9057C71.5006 17.7497 71.6442 17.6196 71.8099 17.5241C71.964 17.4391 72.137 17.3951 72.3127 17.3962C72.486 17.3937 72.6562 17.443 72.8018 17.5378C72.9427 17.6305 73.0531 17.7633 73.1189 17.9194C73.1991 18.1598 73.2337 18.4132 73.2208 18.6665V19.9437H72.9037V18.7602C72.9101 18.5683 72.8979 18.3762 72.8675 18.1867C72.8428 18.0421 72.7682 17.911 72.6569 17.8166C72.5396 17.7282 72.3955 17.6837 72.2493 17.6909C72.0605 17.6897 71.8778 17.758 71.7352 17.8828C71.5877 18.0052 71.4822 18.1716 71.434 18.3581C71.3957 18.5844 71.3805 18.8141 71.3887 19.0435V19.9574H71.0717V17.4602ZM68.6848 19.4342C68.696 19.6926 68.6654 19.9511 68.5942 20.1996C68.5157 20.4212 68.3627 20.608 68.1617 20.7274C67.9361 20.8559 67.6801 20.9198 67.4212 20.9125C67.2279 20.9158 67.0355 20.8848 66.8528 20.8211C66.7007 20.7705 66.561 20.6879 66.4429 20.5789C66.3179 20.4508 66.2187 20.2995 66.1507 20.1333H66.495C66.5783 20.2878 66.7042 20.4148 66.8573 20.4989C67.0294 20.578 67.2163 20.6189 67.4053 20.6189C67.5944 20.6189 67.7813 20.578 67.9534 20.4989C68.0875 20.4311 68.1987 20.3245 68.2727 20.1927C68.3479 20.0036 68.3804 19.7999 68.3678 19.5964V19.4685C68.2513 19.6186 68.1016 19.7391 67.9307 19.8203C67.7433 19.9077 67.538 19.9488 67.3317 19.9405C67.1254 19.9322 66.924 19.8745 66.7441 19.7723C66.5551 19.664 66.3986 19.5061 66.2911 19.3154C66.1822 19.1236 66.1259 18.9059 66.1281 18.6848C66.1271 18.4585 66.1857 18.2361 66.2979 18.0402C66.4101 17.8443 66.5719 17.6819 66.7667 17.5698C66.9594 17.4571 67.178 17.3973 67.4008 17.3962C67.5787 17.3949 67.7546 17.4347 67.9149 17.5127C68.0906 17.6056 68.2449 17.7348 68.3678 17.892V17.4602H68.6848V19.4342Z" fill="#ED1C24"/>
<path d="M40.5949 16.2927H36.9874V20.9971H40.5949V19.889V16.2927Z" fill="#ED1C24"/>
<path d="M34.7546 16.2927H27.8861C28.1714 16.5692 28.5904 16.9416 29.1497 17.4191C30.0087 18.1426 30.5288 18.5996 30.71 18.79C31.107 19.1741 31.435 19.6248 31.6793 20.122C31.8012 20.4014 31.8836 20.6968 31.9238 20.9994H34.7546V16.2927Z" fill="#ED1C24"/>
<path d="M42.8278 20.9971H42.8641H46.313H46.3606V16.2927H46.3357H42.8505H42.8278V20.9971Z" fill="#ED1C24"/>
<path d="M67.9058 17.835C67.7588 17.7507 67.5925 17.7066 67.4234 17.7071C67.2479 17.7057 67.0752 17.7514 66.923 17.8396C66.7718 17.9244 66.6466 18.0492 66.5606 18.2006C66.475 18.3539 66.4305 18.5272 66.4315 18.7032C66.4268 18.8301 66.4483 18.9566 66.4947 19.0746C66.5411 19.1926 66.6114 19.2996 66.701 19.3887C66.7948 19.4784 66.9054 19.5484 67.0263 19.5943C67.1473 19.6402 67.2762 19.6612 67.4053 19.656C67.5341 19.6623 67.6627 19.6421 67.7834 19.5966C67.9042 19.551 68.0144 19.481 68.1073 19.3909C68.1966 19.3016 68.2664 19.1946 68.3124 19.0766C68.3584 18.9586 68.3796 18.8322 68.3746 18.7055C68.3775 18.5301 68.3353 18.357 68.2523 18.2029C68.1743 18.0491 68.054 17.9214 67.9058 17.835Z" fill="#ED1C24"/>
<path d="M62.5953 16.2927H53.4396V20.9971H62.5953V16.2927ZM55.822 19.4343C55.9057 19.5242 56.0072 19.5953 56.12 19.6429C56.2328 19.6906 56.3542 19.7137 56.4764 19.7107C56.601 19.7116 56.7246 19.6891 56.841 19.6445C56.9521 19.6062 57.055 19.5473 57.1445 19.4708C57.2512 19.3678 57.3421 19.2492 57.414 19.119L57.6812 19.2606C57.6046 19.4166 57.502 19.558 57.3778 19.6788C57.2648 19.7838 57.1335 19.8667 56.9905 19.9232C56.8345 19.9801 56.6695 20.008 56.5036 20.0055C56.3271 20.015 56.1507 19.9842 55.9876 19.9153C55.8244 19.8465 55.6788 19.7414 55.5616 19.6079C55.3419 19.3605 55.2209 19.0398 55.2219 18.7077C55.2183 18.4016 55.32 18.1037 55.5095 17.8647C55.623 17.7132 55.7709 17.5914 55.9407 17.5095C56.1106 17.4277 56.2974 17.388 56.4855 17.394C56.679 17.3882 56.8711 17.4288 57.0459 17.5126C57.2207 17.5965 57.3733 17.721 57.491 17.8761C57.6731 18.1208 57.7687 18.42 57.7627 18.726H55.5502C55.5453 18.9889 55.6429 19.2433 55.822 19.4343ZM61.0985 19.793C61.0286 19.8629 60.9454 19.9178 60.854 19.9543C60.7625 19.9908 60.6646 20.0082 60.5663 20.0055C60.425 20.0068 60.2854 19.9747 60.1587 19.9118C60.0333 19.8527 59.9238 19.7642 59.8394 19.6536L60.0386 19.4252C60.0986 19.5068 60.1759 19.574 60.2648 19.6218C60.3537 19.6696 60.4521 19.6969 60.5527 19.7016C60.6726 19.7054 60.789 19.661 60.8765 19.5782C60.9186 19.5428 60.9525 19.4984 60.9756 19.4483C60.9987 19.3981 61.0105 19.3434 61.0101 19.2881C61.0104 19.1993 60.9791 19.1133 60.9218 19.0459C60.8052 18.9349 60.6703 18.8452 60.5233 18.7808C60.349 18.7019 60.1943 18.5848 60.0703 18.4381C59.9834 18.3087 59.943 18.1531 59.9557 17.9972C59.9685 17.8414 60.0337 17.6946 60.1405 17.5813C60.2711 17.4566 60.4454 17.3893 60.6252 17.394C60.8865 17.412 61.1304 17.5325 61.3045 17.7298L61.1007 17.9423C60.9743 17.7967 60.7961 17.7073 60.6048 17.6933C60.5065 17.6913 60.4114 17.7282 60.3398 17.7961C60.3072 17.8247 60.2808 17.8597 60.2621 17.899C60.2434 17.9383 60.2329 17.981 60.2311 18.0246C60.2333 18.1092 60.2654 18.1903 60.3217 18.2531C60.4308 18.3643 60.5599 18.4535 60.7022 18.5158C60.8855 18.5988 61.0492 18.7203 61.1822 18.8722C61.2652 18.9851 61.3089 19.1224 61.3068 19.2629C61.3122 19.3616 61.2963 19.4602 61.2603 19.5521C61.2244 19.644 61.1692 19.7269 61.0985 19.7953V19.793Z" fill="#ED1C24"/>
<path d="M30.71 18.7878C30.5258 18.5989 30.0057 18.1419 29.1497 17.4169C28.5904 16.9394 28.1714 16.567 27.8861 16.2905C27.7485 16.165 27.6199 16.0299 27.5011 15.8861C27.3876 15.741 27.3191 15.5654 27.3041 15.3812C27.3017 15.3332 27.3017 15.2852 27.3041 15.2372C27.3038 15.0966 27.331 14.9573 27.3841 14.8273C27.4373 14.6973 27.5153 14.5792 27.6137 14.4797C27.7122 14.3801 27.8291 14.3012 27.9578 14.2473C28.0866 14.1934 28.2246 14.1657 28.3639 14.1657C28.4001 14.1633 28.4364 14.1633 28.4726 14.1657H28.5315C29.1384 14.1657 29.6502 14.73 30.4315 15.4063L31.7631 14.2913C31.2855 13.6834 30.6985 13.1718 30.0329 12.7834C29.5121 12.5118 28.9344 12.37 28.3481 12.3698C27.492 12.3465 26.6615 12.6661 26.0382 13.2586C25.7407 13.5248 25.503 13.8521 25.3413 14.2186C25.1796 14.5851 25.0976 14.9823 25.1007 15.3835C25.1146 16.0008 25.311 16.5999 25.6645 17.1039C26.0374 17.6797 26.8678 18.4968 28.1556 19.5555C28.634 19.9204 29.0728 20.3355 29.4645 20.7938C29.6496 21.0238 29.7547 21.3088 29.7634 21.6049C29.7607 21.7571 29.7238 21.9066 29.6556 22.0424C29.5873 22.1781 29.4895 22.2965 29.3694 22.3886C29.0978 22.6197 28.7508 22.741 28.3956 22.729C27.6574 22.729 27.0037 22.2028 26.4345 21.1502L24.5458 22.2926C24.9006 23.0767 25.4535 23.7527 26.1492 24.253C26.8031 24.6777 27.5683 24.895 28.3458 24.8767C29.4237 24.8767 30.2971 24.5584 30.9659 23.9217C31.2946 23.6134 31.5544 23.2379 31.7278 22.8202C31.9011 22.4026 31.9842 21.9524 31.9714 21.4998C31.9706 21.3284 31.9569 21.1573 31.9306 20.988C31.8904 20.6854 31.808 20.3901 31.6861 20.1107C31.4388 19.6162 31.1086 19.1686 30.71 18.7878Z" fill="white"/>
<path opacity="0.1" d="M48.5436 21.3649H48.5906V20.9971H48.566C48.5593 21.125 48.5526 21.2484 48.5436 21.3649Z" fill="white"/>
<path d="M46.3583 20.9971V21.3649H48.5436C48.5436 21.2484 48.5595 21.1364 48.5663 20.9971H46.3583Z" fill="white"/>
<path opacity="0.1" d="M46.3583 20.9971V21.3649H48.5436C48.5436 21.2484 48.5595 21.1364 48.5663 20.9971H46.3583Z" fill="white"/>
<path d="M48.5889 15.6826H46.3583V16.2927H48.5889V15.6826Z" fill="white"/>
<path opacity="0.1" d="M48.5889 15.6826H46.3583V16.2927H48.5889V15.6826Z" fill="white"/>
<path d="M48.5912 16.2927H46.3606V20.9971H48.5663H48.5912V19.889V16.2927Z" fill="#ED1C24"/>
<path opacity="0.1" d="M48.5912 16.2927H46.3606V20.9971H48.5663H48.5912V19.889V16.2927Z" fill="white"/>
<path opacity="0.1" d="M40.604 20.9971V21.3649H40.6666C40.6554 21.2461 40.6465 21.1227 40.6375 20.9971H40.604Z" fill="white"/>
<path d="M42.8256 15.6826H40.5949V16.2927H42.8256V15.6826Z" fill="white"/>
<path opacity="0.1" d="M42.8256 15.6826H40.5949V16.2927H42.8256V15.6826Z" fill="white"/>
<path d="M42.8278 20.9971H40.6289C40.6289 21.1227 40.647 21.2461 40.6583 21.3649H42.8278V20.9971Z" fill="white"/>
<path opacity="0.1" d="M42.8278 20.9971H40.6289C40.6289 21.1227 40.647 21.2461 40.6583 21.3649H42.8278V20.9971Z" fill="white"/>
<path d="M42.8278 20.9971V16.2927H40.5949V19.889V20.9971H40.6289H42.8278Z" fill="#ED1C24"/>
<path opacity="0.1" d="M42.8278 20.9971V16.2927H40.5949V19.889V20.9971H40.6289H42.8278Z" fill="white"/>
<path opacity="0.1" d="M36.9873 20.9971H36.9829V21.3649H36.9873V20.9971Z" fill="white"/>
<path opacity="0.1" d="M36.9873 15.6826H36.9829V16.2927H36.9873V15.6826Z" fill="white"/>
<path d="M36.9829 15.6826H34.7545V16.2927H36.9829V15.6826Z" fill="white"/>
<path opacity="0.1" d="M36.9829 15.6826H34.7545V16.2927H36.9829V15.6826Z" fill="white"/>
<path d="M36.9829 20.9971H34.7545V21.3649H36.9829V20.9971Z" fill="white"/>
<path opacity="0.1" d="M36.9829 20.9971H34.7545V21.3649H36.9829V20.9971Z" fill="white"/>
<path d="M36.9829 16.2927H34.7545V20.9971H36.9829H36.9874V16.2927H36.9829Z" fill="#ED1C24"/>
<path opacity="0.1" d="M36.9829 16.2927H34.7545V20.9971H36.9829H36.9874V16.2927H36.9829Z" fill="white"/>
<path d="M78.7464 16.9209C78.6627 16.6312 78.5567 16.3486 78.4293 16.0756C78.1689 15.5191 77.8269 15.0053 77.4148 14.5516C77.3446 14.4739 77.2721 14.3963 77.1883 14.3231C76.557 13.6663 75.7878 13.1604 74.9373 12.8426C74.8445 12.8083 74.7516 12.7786 74.6588 12.7489C74.0812 12.5756 73.4814 12.4894 72.8788 12.493H72.8652C71.7886 12.4989 70.7322 12.7883 69.8004 13.3324C68.8686 13.8766 68.0938 14.6568 67.5525 15.5958C67.4229 15.8203 67.308 16.0531 67.2083 16.2926H69.7492C69.8605 16.138 69.9823 15.9914 70.1138 15.8539C70.4699 15.4817 70.8987 15.1879 71.3731 14.9913C71.8474 14.7947 72.3571 14.6994 72.8698 14.7115C72.9128 14.7115 72.9536 14.7115 72.9966 14.7115C73.0894 14.7115 73.1845 14.7115 73.2751 14.7253C73.3114 14.7253 73.3453 14.7253 73.3816 14.739C73.4744 14.7504 73.5673 14.7618 73.6578 14.7801L73.7575 14.8052C73.8481 14.8258 73.9364 14.8463 74.0224 14.8715L74.1289 14.9103C74.2104 14.94 74.2942 14.9674 74.3734 15.0017C74.4119 15.0177 74.4504 15.0383 74.4867 15.0565C74.5614 15.0931 74.6384 15.1251 74.7131 15.1662C74.7879 15.2073 74.8037 15.2233 74.849 15.253C74.8943 15.2827 74.9736 15.3262 75.0347 15.3696C75.0959 15.413 75.157 15.4632 75.2159 15.5112C75.2748 15.5592 75.2997 15.5729 75.3404 15.6072C75.4401 15.694 75.5352 15.7854 75.6303 15.8836C75.7531 16.0129 75.868 16.1494 75.9745 16.2926C76.0266 16.3634 76.0787 16.432 76.1262 16.5051C76.2669 16.7208 76.3853 16.9505 76.4795 17.1905C76.6727 17.6906 76.7688 18.2235 76.7626 18.7602C76.7775 19.55 76.5626 20.3269 76.1444 20.9947L76.1308 21.0175C75.9866 21.2383 75.8221 21.4449 75.6393 21.6344C75.027 22.2909 74.1969 22.6974 73.3068 22.7768C73.1777 22.7882 73.0464 22.7951 72.9151 22.7951C71.9999 22.8052 71.1112 22.486 70.4082 21.8949C70.091 21.6362 69.8172 21.3276 69.5974 20.981H67.1223C67.4261 21.7824 67.8884 22.5131 68.481 23.1287C69.0504 23.7122 69.7285 24.1764 70.4763 24.4948C71.224 24.8131 72.0268 24.9793 72.8384 24.9838C73.65 24.9882 74.4545 24.8309 75.2056 24.5208C75.9568 24.2106 76.6398 23.7539 77.2155 23.1766C77.2902 23.1012 77.3627 23.0258 77.4306 22.9482C77.5552 22.8088 77.6707 22.6671 77.7794 22.5232C77.953 22.2953 78.1097 22.0547 78.2482 21.8035C78.6027 21.1559 78.8332 20.4466 78.9275 19.7129C78.9707 19.398 78.9919 19.0804 78.9909 18.7625C78.9961 18.14 78.9137 17.52 78.7464 16.9209Z" fill="white"/>
<path d="M57.491 17.8784C57.3733 17.7234 57.2207 17.5988 57.0459 17.515C56.8711 17.4312 56.679 17.3905 56.4855 17.3963C56.2974 17.3904 56.1106 17.43 55.9407 17.5119C55.7709 17.5938 55.623 17.7156 55.5095 17.867C55.32 18.1061 55.2183 18.404 55.2219 18.7101C55.2209 19.0422 55.3419 19.3629 55.5615 19.6103C55.6788 19.7438 55.8244 19.8488 55.9876 19.9177C56.1507 19.9865 56.3271 20.0173 56.5036 20.0078C56.6695 20.0103 56.8345 19.9825 56.9905 19.9256C57.1335 19.869 57.2648 19.7861 57.3777 19.6811C57.502 19.5604 57.6046 19.4189 57.6812 19.263L57.414 19.1213C57.3421 19.2516 57.2512 19.3702 57.1445 19.4732C57.055 19.5497 56.952 19.6086 56.841 19.6468C56.7246 19.6915 56.601 19.7139 56.4764 19.7131C56.3541 19.7157 56.2325 19.6923 56.1197 19.6442C56.0069 19.5962 55.9055 19.5247 55.822 19.4344C55.6421 19.2437 55.5436 18.9893 55.548 18.7261H57.7627C57.7682 18.4209 57.6726 18.1226 57.491 17.8784ZM55.5797 18.4519C55.6249 18.2563 55.7247 18.0779 55.8673 17.9378C56.0388 17.785 56.2613 17.7034 56.49 17.7093C56.6348 17.7096 56.7777 17.7415 56.909 17.803C57.0337 17.8578 57.1433 17.9425 57.2283 18.0498C57.3184 18.1712 57.3817 18.3106 57.414 18.4588L55.5797 18.4519Z" fill="white"/>
<path d="M60.7067 18.5317C60.5644 18.4694 60.4353 18.3802 60.3262 18.269C60.2699 18.2062 60.2378 18.1251 60.2356 18.0405C60.2374 17.997 60.2479 17.9542 60.2666 17.9149C60.2853 17.8756 60.3118 17.8406 60.3444 17.812C60.416 17.7441 60.5111 17.7072 60.6093 17.7092C60.8007 17.7232 60.9788 17.8126 61.1052 17.9582L61.3091 17.7458C61.1349 17.5484 60.891 17.4279 60.6297 17.4099C60.4499 17.4052 60.2757 17.4726 60.1451 17.5973C60.0382 17.7106 59.973 17.8573 59.9603 18.0132C59.9475 18.169 59.9879 18.3246 60.0749 18.454C60.1988 18.6007 60.3535 18.7178 60.5278 18.7968C60.6749 18.8611 60.8097 18.9508 60.9263 19.0618C60.9836 19.1292 61.015 19.2152 61.0147 19.304C61.015 19.3593 61.0032 19.414 60.9801 19.4642C60.957 19.5143 60.9232 19.5587 60.8811 19.5941C60.7936 19.6769 60.6771 19.7213 60.5572 19.7175C60.4566 19.7128 60.3582 19.6855 60.2693 19.6377C60.1804 19.5899 60.1032 19.5227 60.0432 19.4411L59.8439 19.6695C59.9283 19.7801 60.0378 19.8687 60.1632 19.9277C60.29 19.9906 60.4296 20.0227 60.5708 20.0214C60.6691 20.0242 60.767 20.0067 60.8585 19.9702C60.95 19.9337 61.0331 19.8788 61.103 19.8089C61.1724 19.7428 61.2273 19.6626 61.264 19.5736C61.3007 19.4847 61.3183 19.3889 61.3159 19.2926C61.318 19.1521 61.2742 19.0148 61.1913 18.9019C61.0583 18.7445 60.8929 18.6182 60.7067 18.5317Z" fill="white"/>
<path d="M68.3587 17.8921C68.2359 17.7349 68.0815 17.6057 67.9058 17.5128C67.7455 17.4348 67.5697 17.395 67.3917 17.3963C67.1683 17.3978 66.9491 17.458 66.7557 17.5709C66.5623 17.6839 66.4014 17.8458 66.2889 18.0406C66.1764 18.2363 66.1178 18.4587 66.1191 18.6849C66.1168 18.906 66.1731 19.1237 66.2821 19.3155C66.3895 19.5062 66.546 19.664 66.735 19.7724C66.9149 19.8746 67.1163 19.9322 67.3226 19.9406C67.5289 19.9489 67.7342 19.9077 67.9217 19.8204C68.0926 19.7392 68.2423 19.6187 68.3587 19.4686V19.5965C68.3714 19.7999 68.3389 20.0037 68.2636 20.1928C68.1896 20.3246 68.0785 20.4312 67.9443 20.499C67.7722 20.578 67.5853 20.6189 67.3963 20.6189C67.2072 20.6189 67.0203 20.578 66.8482 20.499C66.6951 20.4149 66.5693 20.2879 66.4859 20.1334H66.1417C66.2097 20.2996 66.3089 20.4508 66.4338 20.579C66.5519 20.688 66.6916 20.7706 66.8437 20.8211C67.0264 20.8849 67.2188 20.9158 67.4121 20.9125C67.6711 20.9199 67.9271 20.8559 68.1526 20.7275C68.3536 20.608 68.5067 20.4213 68.5852 20.1997C68.6594 19.9517 68.6931 19.6932 68.6848 19.4343V17.4557H68.3678L68.3587 17.8921ZM68.1074 19.3772C68.0144 19.4672 67.9042 19.5372 67.7835 19.5828C67.6627 19.6284 67.5341 19.6486 67.4053 19.6422C67.2762 19.6474 67.1473 19.6264 67.0264 19.5805C66.9054 19.5346 66.7948 19.4647 66.701 19.3749C66.6114 19.2858 66.5411 19.1788 66.4947 19.0608C66.4483 18.9428 66.4268 18.8163 66.4316 18.6895C66.4305 18.5134 66.475 18.3402 66.5606 18.1868C66.6466 18.0354 66.7719 17.9106 66.923 17.8258C67.0752 17.7376 67.2479 17.6919 67.4234 17.6933C67.5925 17.6929 67.7588 17.737 67.9058 17.8212C68.0512 17.902 68.1712 18.0224 68.2523 18.1685C68.3353 18.3226 68.3775 18.4958 68.3746 18.6712C68.3825 18.8013 68.3628 18.9316 68.3167 19.0533C68.2706 19.1751 68.1992 19.2855 68.1074 19.3772Z" fill="white"/>
<path d="M71.3887 19.0344C71.3805 18.8049 71.3957 18.5753 71.434 18.3489C71.4822 18.1625 71.5876 17.9961 71.7352 17.8737C71.8777 17.7488 72.0605 17.6806 72.2493 17.6818C72.3955 17.6746 72.5396 17.719 72.6569 17.8075C72.7682 17.9019 72.8428 18.033 72.8675 18.1776C72.8979 18.3671 72.91 18.5592 72.9037 18.7511V19.9346H73.214V18.6574C73.2268 18.4041 73.1923 18.1506 73.1121 17.9103C73.0463 17.7542 72.9359 17.6213 72.795 17.5287C72.6494 17.4338 72.4792 17.3846 72.3059 17.3871C72.1302 17.386 71.9572 17.43 71.8031 17.515C71.6374 17.6104 71.4938 17.7405 71.3819 17.8966V17.451H71.0649V19.9346H71.3819L71.3887 19.0344Z" fill="white"/>
<path d="M17.5754 21.6322H14.7651L16.7964 19.7244H12.4212L10.528 21.5111V24.808H18.7711L18.753 24.7646L17.5754 21.6322Z" fill="#E91C23"/>
<path d="M12.496 8.33711L14.2148 12.7627L12.5073 8.32568L12.496 8.33711Z" fill="#E91C23"/>
<path d="M21.4932 14.7619C21.9063 14.0084 22.1251 13.1622 22.1295 12.3012C22.1435 11.5754 22.0064 10.8547 21.7271 10.1856C21.4478 9.51658 21.0325 8.91409 20.5081 8.41705C19.5421 7.46173 18.2589 6.90236 16.9074 6.84741L20.4718 16.199C20.8675 15.7625 21.2104 15.2801 21.4932 14.7619Z" fill="#E91C23"/>
<path d="M17.1723 15.2258C17.075 15.3264 16.9753 15.4246 16.8689 15.5251L16.8553 15.5388L17.2199 16.487H15.8498L15.2769 17.0285H17.863L17.1723 15.2258Z" fill="#E91C23"/>
<path d="M16.7625 6.84741C16.6741 6.84741 16.5881 6.84741 16.4975 6.84741C16.4069 6.84741 16.2914 6.84741 16.1895 6.86112L17.4667 10.2175C17.6435 10.3151 17.8046 10.4391 17.9446 10.5853C18.1539 10.8021 18.3176 11.0594 18.4258 11.3417C18.534 11.6241 18.5844 11.9255 18.5741 12.2281C18.5774 12.4819 18.5599 12.7356 18.522 12.9866L19.9578 16.761C20.1027 16.6171 20.2431 16.4732 20.3722 16.3292L16.7625 6.84741Z" fill="#E91C23"/>
<path d="M13.1595 7.79796L14.4729 11.2046C14.5533 11.0145 14.6609 10.8375 14.7923 10.6791L14.8262 10.6425L13.6215 7.51465C13.4623 7.60031 13.3081 7.6949 13.1595 7.79796Z" fill="#E91C23"/>
<path d="M13.7392 7.44837L14.9259 10.5328C15.0289 10.4339 15.1429 10.3473 15.2656 10.2746L14.1084 7.2793C13.9861 7.32499 13.8593 7.38668 13.7392 7.44837Z" fill="#E91C23"/>
<path d="M19.5773 21.6323H19.1448L20.2929 24.6734H20.7255L19.5773 21.6323Z" fill="#E91C23"/>
<path d="M17.3671 19.1875L17.315 19.0527H13.1301L12.5616 19.5919H16.9391L17.3671 19.1875Z" fill="#E91C23"/>
<path d="M17.623 14.7253C17.5143 14.8579 17.3965 14.9881 17.2742 15.1206L18.0578 17.1586H15.1342L14.6949 17.5722H18.1846L18.2027 17.6156L18.4179 18.1891L18.8006 17.8303L17.623 14.7253Z" fill="#E91C23"/>
<path d="M20.9746 21.6323H20.3971L21.5566 24.6734H22.134L20.9746 21.6323Z" fill="#E91C23"/>
<path d="M14.5522 17.7117L13.9838 18.2486H17.8653L17.8834 18.292L17.9966 18.5959L18.3182 18.292L18.1008 17.7117H14.5522Z" fill="#E91C23"/>
<path d="M21.6743 21.6323H21.1172L22.2767 24.6734H22.8315L21.6743 21.6323Z" fill="#E91C23"/>
<path d="M18.2276 13.8526L18.1801 13.9326L19.4415 17.2386L19.523 17.161C19.6385 17.0581 19.7494 16.9553 19.8559 16.8525L18.4722 13.2197C18.4184 13.4405 18.3361 13.6533 18.2276 13.8526Z" fill="#E91C23"/>
<path d="M19.4233 24.6734L18.282 21.6323H17.7181L18.8617 24.6734H19.4233Z" fill="#E91C23"/>
<path d="M16.7489 15.637L15.9925 16.3544H17.0251L16.7489 15.637Z" fill="#E91C23"/>
<path d="M12.6137 8.23891L14.2216 12.4155C14.2308 12.0687 14.291 11.7253 14.4005 11.3965L13.0417 7.88477C12.8991 7.98758 12.7496 8.10639 12.6137 8.23891Z" fill="#E91C23"/>
<path d="M21.817 21.6323L22.9742 24.6734H23.5585L22.399 21.6323H21.817Z" fill="#E91C23"/>
<path d="M20.1503 24.6734L19.0021 21.6323H18.4247L19.5637 24.6734H20.1503Z" fill="#E91C23"/>
<path d="M17.7747 18.3833H13.8411L13.2727 18.9202H17.4079L17.4713 19.0893L17.8925 18.694L17.7747 18.3833Z" fill="#E91C23"/>
<path d="M16.0491 6.85425C15.8634 6.85425 15.68 6.88395 15.5034 6.90908L16.6809 9.99581C16.8908 10.0081 17.0977 10.052 17.2946 10.126L16.0491 6.85425Z" fill="#E91C23"/>
<path d="M14.7085 7.07129C14.5454 7.11698 14.3869 7.16725 14.2329 7.22665L15.3833 10.2106C15.5277 10.1398 15.6796 10.0861 15.8362 10.0506L14.7085 7.07129Z" fill="#E91C23"/>
<path d="M20.2544 21.6323H19.72L20.8659 24.6734H21.4139L20.2544 21.6323Z" fill="#E91C23"/>
<path d="M18.094 14.0764C17.9793 14.2592 17.8546 14.4354 17.7204 14.6042L18.9138 17.7343L19.3373 17.3368L18.094 14.0764Z" fill="#E91C23"/>
<path d="M14.8376 7.03489L15.9698 10.0234C16.1196 9.99909 16.2711 9.98687 16.4228 9.98682H16.5337L15.3652 6.92065C15.1855 6.95416 15.0097 6.99224 14.8376 7.03489Z" fill="#E91C23"/>
<path d="M16.9074 6.85432L14.3099 0.0434095L14.2941 0H9.48181L0 24.8081H4.98208L6.97265 19.7245H16.8598L17.5777 21.6322L18.7553 24.7647L18.7734 24.8081H23.7555L20.4718 16.2059L16.9074 6.85432ZM19.9578 16.7497L18.522 12.9752C18.5599 12.7242 18.5774 12.4705 18.5741 12.2167C18.5844 11.9142 18.534 11.6127 18.4258 11.3304C18.3176 11.0481 18.1539 10.7908 17.9446 10.5739C17.8046 10.4277 17.6435 10.3037 17.4667 10.2061L16.1895 6.84975C16.2914 6.84975 16.3911 6.83604 16.4975 6.83604C16.6039 6.83604 16.6741 6.83604 16.7624 6.83604L20.3722 16.3064C20.2431 16.4641 20.1027 16.6057 19.9578 16.7497ZM17.4079 18.9202H13.2727L13.8411 18.3833H17.7747L17.8925 18.694L17.4713 19.0893L17.4079 18.9202ZM18.2095 17.6202L18.1914 17.5768H14.6949L15.1342 17.1632H18.0578L17.2788 15.1206C17.4033 14.9881 17.5188 14.8579 17.6275 14.7254L18.8074 17.8349L18.4247 18.1937L18.2095 17.6202ZM18.3205 18.2919L17.9966 18.5958L17.8834 18.2919L17.8653 18.2485H13.9838L14.5522 17.7116H18.1008L18.3205 18.2919ZM15.0821 15.011H8.74129L11.9117 6.78578L12.5028 8.31886L14.2103 12.7559L15.0821 15.011ZM14.2216 12.4086L12.6137 8.2389C12.7541 8.11323 12.8991 7.99442 13.0485 7.88476L14.4073 11.3965C14.2962 11.7227 14.2336 12.0638 14.2216 12.4086ZM16.7489 15.6393L17.0251 16.3544H15.9925L16.7489 15.6393ZM14.7877 10.679C14.6563 10.8375 14.5487 11.0145 14.4684 11.2045L13.155 7.79793C13.3007 7.69516 13.4519 7.60058 13.6079 7.51462L14.8126 10.6425L14.7877 10.679ZM15.8453 16.4869H17.2154L16.8553 15.5502L16.8689 15.5365C16.9753 15.4359 17.075 15.3377 17.1723 15.2372L17.863 17.0353H15.2769L15.8453 16.4869ZM14.9259 10.5237L13.7392 7.43922C13.8593 7.37754 13.9861 7.3227 14.1106 7.27015L15.2656 10.2655C15.1429 10.3381 15.0289 10.4248 14.9259 10.5237ZM14.2329 7.2176C14.3869 7.1582 14.5454 7.10793 14.7085 7.06224L15.8408 10.0324C15.6842 10.0679 15.5322 10.1216 15.3878 10.1924L14.2329 7.2176ZM17.7317 14.6043C17.8659 14.4355 17.9906 14.2593 18.1053 14.0765L19.3486 17.3369L18.9251 17.7344L17.7317 14.6043ZM16.4363 9.98675C16.2847 9.9868 16.1332 9.99902 15.9834 10.0233L14.8511 7.03482C15.0232 6.99217 15.1999 6.95561 15.3811 6.92515L16.5496 9.99132L16.4363 9.98675ZM15.5147 6.90916C15.6913 6.88402 15.8747 6.86575 16.0604 6.85432L17.3059 10.1261C17.109 10.0521 16.9021 10.0082 16.6922 9.99589L15.5147 6.90916ZM19.0134 21.6322L20.1616 24.6733H19.5751L18.4428 21.6322H19.0134ZM19.1561 21.6322H19.5886L20.7368 24.6733H20.3043L19.1561 21.6322ZM19.7313 21.6322H20.2658L21.4252 24.6733H20.8772L19.7313 21.6322ZM20.4107 21.6322H20.9882L22.1476 24.6733H21.5679L20.4107 21.6322ZM21.1308 21.6322H21.6879L22.8451 24.6733H22.2903L21.1308 21.6322ZM19.5456 17.1609L19.4641 17.2386L18.1846 13.9326L18.2322 13.8526C18.3407 13.6533 18.4229 13.4405 18.4767 13.2197L19.8604 16.8525C19.7472 16.9553 19.6385 17.0581 19.523 17.1609H19.5456ZM13.1527 19.055H17.3377L17.3897 19.1875L16.9617 19.5897H12.5616L13.1527 19.055ZM18.3046 21.6322L19.4369 24.6733H18.864L17.7204 21.6322H18.3046ZM22.9968 24.6733L21.8079 21.6322H22.3899L23.5494 24.6733H22.9968Z" fill="white"/>
<path opacity="0.1" d="M64.8254 20.9971H64.783V21.5157H64.8254V20.9971Z" fill="white"/>
<path opacity="0.1" d="M64.8254 15.8335H64.783V16.295H64.8254V15.8335Z" fill="white"/>
<path d="M64.783 20.9971H62.5954V21.5157H64.783V20.9971Z" fill="white"/>
<path opacity="0.1" d="M64.783 20.9971H62.5954V21.5157H64.783V20.9971Z" fill="white"/>
<path d="M64.783 15.8335H62.5954V16.295H64.783V15.8335Z" fill="white"/>
<path opacity="0.1" d="M64.783 15.8335H62.5954V16.295H64.783V15.8335Z" fill="white"/>
<path d="M64.7829 16.2927H62.5953V20.9971H64.835V16.2927H64.7829ZM63.902 19.9484H63.585V17.4602H63.902V19.9484ZM63.9269 16.8936C63.8778 16.9419 63.812 16.9689 63.7435 16.9689C63.6749 16.9689 63.6091 16.9419 63.5601 16.8936C63.5357 16.8692 63.5165 16.8402 63.5033 16.8082C63.4901 16.7763 63.4834 16.742 63.4834 16.7074C63.4834 16.6728 63.4901 16.6385 63.5033 16.6066C63.5165 16.5746 63.5357 16.5456 63.5601 16.5212C63.596 16.4813 63.6433 16.4535 63.6954 16.4416C63.7476 16.4298 63.8021 16.4344 63.8515 16.4548C63.901 16.4753 63.943 16.5106 63.9719 16.556C64.0008 16.6014 64.0151 16.6547 64.013 16.7086C64.0119 16.7428 64.004 16.7765 63.9896 16.8075C63.9752 16.8386 63.9546 16.8663 63.9292 16.8891L63.9269 16.8936Z" fill="#ED1C24"/>
<path opacity="0.1" d="M64.7829 16.2927H62.5953V20.9971H64.835V16.2927H64.7829ZM63.902 19.9484H63.585V17.4602H63.902V19.9484ZM63.9269 16.8936C63.8778 16.9419 63.812 16.9689 63.7435 16.9689C63.6749 16.9689 63.6091 16.9419 63.5601 16.8936C63.5357 16.8692 63.5165 16.8402 63.5033 16.8082C63.4901 16.7763 63.4834 16.742 63.4834 16.7074C63.4834 16.6728 63.4901 16.6385 63.5033 16.6066C63.5165 16.5746 63.5357 16.5456 63.5601 16.5212C63.596 16.4813 63.6433 16.4535 63.6954 16.4416C63.7476 16.4298 63.8021 16.4344 63.8515 16.4548C63.901 16.4753 63.943 16.5106 63.9719 16.556C64.0008 16.6014 64.0151 16.6547 64.013 16.7086C64.0119 16.7428 64.004 16.7765 63.9896 16.8075C63.9752 16.8386 63.9546 16.8663 63.9292 16.8891L63.9269 16.8936Z" fill="white"/>
<path d="M63.7435 16.439C63.6742 16.4396 63.608 16.4678 63.5592 16.5174C63.5104 16.5671 63.4831 16.6341 63.4831 16.704C63.4826 16.7386 63.4892 16.7728 63.5024 16.8047C63.5157 16.8365 63.5353 16.8652 63.56 16.8891C63.6091 16.9374 63.6749 16.9644 63.7435 16.9644C63.812 16.9644 63.8778 16.9374 63.9269 16.8891C63.9512 16.8647 63.9705 16.8357 63.9837 16.8037C63.9968 16.7718 64.0036 16.7375 64.0036 16.7029C64.0036 16.6683 63.9968 16.634 63.9837 16.6021C63.9705 16.5701 63.9512 16.5411 63.9269 16.5167C63.9034 16.4916 63.8749 16.4717 63.8433 16.4584C63.8117 16.445 63.7777 16.4384 63.7435 16.439Z" fill="white"/>
<path d="M63.902 17.4602H63.585V19.9438H63.902V17.4602Z" fill="white"/>
</g>
<defs>
<clipPath id="clip0_1_211">
<rect width="79" height="25" fill="white"/>
</clipPath>
</defs>
</svg>
