<svg width="119" height="51" viewBox="0 0 119 51" fill="none" xmlns="http://www.w3.org/2000/svg">
<g clip-path="url(#clip0_109_344)">
<path d="M117.168 19.9755C114.978 16.4749 112.292 11.2973 106.852 7.24617C101.124 3.00731 94.2136 1.28249 87.0977 0.461449C77.9245 -0.617361 68.791 0.53146 59.6443 0.916522C53.3764 1.18066 47.1119 1.57845 40.8407 1.81076C29.6544 2.23507 18.467 2.63816 7.27845 3.02004C7.11943 3.57695 6.94717 4.11158 6.7749 4.6303C19.1781 4.59211 31.5824 4.54968 43.9879 4.50301C55.7418 4.45209 67.509 3.48466 79.2496 4.2166C88.7607 4.80851 94.0844 9.48653 96.9865 13.334C101.508 19.3327 102.042 22.6009 103.49 22.7791C106.296 23.1292 112.845 22.83 117.523 22.8332C119.013 22.8205 117.801 20.9875 117.168 19.9755Z" fill="#E23535"/>
<path d="M23.511 18.152C23.5073 19.2744 23.4031 20.3945 23.1996 21.4998C22.9875 22.6685 22.6397 23.8107 22.1627 24.9049C21.6722 26.039 21.0332 27.1084 20.2611 28.0872C19.4466 29.113 18.459 30.0004 17.3392 30.7127C16.0808 31.5046 14.7047 32.1086 13.2578 32.5043C11.5028 32.9749 9.68637 33.2 7.86452 33.1726C7.18429 33.1726 6.514 33.1418 5.85364 33.0803C5.19108 33.0167 4.56163 32.9307 3.96201 32.8225C3.36239 32.7143 2.80584 32.5934 2.3056 32.4629C1.80536 32.3325 1.36144 32.1956 0.980469 32.0588C1.15936 31.2568 1.33825 30.4262 1.51715 29.5606C1.69604 28.6951 1.87825 27.8613 2.07039 27.0498C2.42818 27.2185 2.82571 27.3903 3.26632 27.5558C3.73029 27.729 4.20493 27.8746 4.68752 27.9918C5.21336 28.1257 5.74642 28.2319 6.28431 28.31C7.96726 28.5402 9.68132 28.4406 11.3231 28.0172C12.2393 27.7718 13.1037 27.3744 13.8773 26.8429C14.596 26.3412 15.2088 25.7127 15.6828 24.9908C16.1685 24.2347 16.5242 23.4084 16.7363 22.5436H6.43669C6.60234 21.8117 6.76246 21.0797 6.91706 20.3478C7.07276 19.6159 7.23177 18.8839 7.40073 18.152H17.2597C17.2807 18.0588 17.2928 17.964 17.2961 17.8688V17.5696C17.3034 16.9287 17.1912 16.2918 16.9649 15.6889C16.7296 15.0824 16.3495 14.5374 15.8551 14.0977C15.285 13.6029 14.6136 13.2279 13.8839 12.9966C12.9264 12.7017 11.9242 12.563 10.9189 12.5861C9.83795 12.5817 8.75956 12.6883 7.7022 12.9043C6.80514 13.0759 5.93071 13.3428 5.095 13.6999C5.26064 12.9107 5.4296 12.0674 5.60187 11.17C5.77413 10.2726 5.93315 9.42924 6.11204 8.62411C8.07169 8.00753 10.1224 7.70017 12.1845 7.71396C13.8759 7.68091 15.5596 7.94292 17.1537 8.48727C18.4796 8.95044 19.6839 9.68689 20.6818 10.6449C21.6338 11.5827 22.3589 12.7105 22.8054 13.9481C23.2895 15.3003 23.5282 16.7222 23.511 18.152Z" fill="#E23535"/>
<path d="M46.9262 12.6466H39.7076L35.2783 32.7398H29.4742L33.8737 12.6466H26.5854L27.6058 8.13086H47.9499L46.9262 12.6466Z" fill="#E23535"/>
<path d="M69.1057 32.7398H63.2818L67.6415 12.9712H57.4578L53.118 32.7398H47.314L52.7271 8.13086H74.5189L69.1057 32.7398Z" fill="#E23535"/>
<path d="M79.1565 9.1651L76.9568 19.7591C76.9395 19.8354 76.9402 19.9144 76.9588 19.9904C76.9774 20.0664 77.0133 20.1375 77.0641 20.1985C77.1149 20.2595 77.1792 20.3088 77.2523 20.3429C77.3254 20.377 77.4056 20.395 77.4868 20.3955L96.0618 20.6692C96.1496 20.6715 96.2367 20.6534 96.3157 20.6165C96.3946 20.5796 96.4632 20.5249 96.5155 20.4572C96.5679 20.3894 96.6024 20.3106 96.6163 20.2273C96.6302 20.144 96.6229 20.0587 96.5952 19.9787C95.6279 17.2291 91.3378 7.42437 79.6435 8.73867C79.5262 8.75209 79.4161 8.80041 79.3288 8.87687C79.2415 8.95334 79.1812 9.05411 79.1565 9.1651Z" fill="white"/>
<path d="M118.238 37.2651H0V39.3463H118.238V37.2651Z" fill="white"/>
<path d="M5.61835 46.5447C5.61835 47.9863 4.95579 49.167 2.56393 49.167H2.26246C1.52881 49.1652 0.798065 49.0786 0.0859375 48.9092V47.6044C0.808083 47.8035 1.55434 47.9105 2.30553 47.9227C3.58428 47.9227 3.93212 47.5726 4.02488 47.0316H0.970457V45.7587H4.05801C3.98182 45.1795 3.66048 44.804 2.3221 44.804C1.57191 44.8085 0.825612 44.908 0.102498 45.1V43.7729C0.81405 43.5998 1.54501 43.5111 2.27903 43.5088H2.5805C4.96904 43.5088 5.63492 44.6894 5.63492 46.131L5.61835 46.5447Z" fill="white"/>
<path d="M10.6837 49.0047L9.7395 47.6045H8.39781V49.0047H7.03955V45.014H8.39118V46.4079H9.7395L10.6837 45.014H11.9823V45.3323L10.8592 47.0062L11.9823 48.6769V48.9951L10.6837 49.0047Z" fill="white"/>
<path d="M13.0825 46.8566C13.0825 45.7555 13.6059 44.8645 15.4943 44.8645H15.7295C16.3155 44.8633 16.8996 44.9306 17.4687 45.0649V46.2488C16.8903 46.1013 16.2948 46.0243 15.6963 46.0196C14.4308 46.0196 14.4308 46.4429 14.4308 47.0157C14.4308 47.5885 14.4308 48.0118 15.6963 48.0118C16.295 48.0074 16.8907 47.9294 17.4687 47.7795V48.9665C16.8993 49.0992 16.3154 49.1665 15.7295 49.167H15.4943C13.6059 49.167 13.0825 48.2727 13.0825 47.1748V46.8566Z" fill="white"/>
<path d="M23.8459 45.014V48.9951H22.4975V46.131H20.2912V48.9951H18.9429V45.014H23.8459Z" fill="white"/>
<path d="M27.7316 49.167C25.8433 49.167 25.3198 48.2727 25.3198 47.1748V46.8566C25.3198 45.7555 25.8433 44.8645 27.7316 44.8645H27.9668C29.8882 44.8645 30.2858 45.4373 30.2858 46.1374V46.217C30.2858 46.8534 30.0837 47.4135 27.9668 47.4135C27.5258 47.4233 27.0856 47.3751 26.6582 47.2703C26.6847 47.7254 26.8537 48.0118 27.9833 48.0118C28.6458 48.008 29.3053 47.9279 29.9478 47.7731V48.9665C29.2708 49.0992 28.5816 49.1664 27.8906 49.167H27.7316ZM26.7112 46.4174C27.0974 46.5054 27.4937 46.5461 27.8906 46.5384C28.8844 46.5384 28.9374 46.3793 28.9374 46.2201C28.9374 46.061 28.8844 45.8478 27.9767 45.8478C27.069 45.8478 26.794 46.0578 26.7112 46.4174Z" fill="white"/>
<path d="M32.0549 45.014L32.5087 45.2686C33.0862 44.981 33.7302 44.8387 34.3805 44.8549C36.2688 44.8549 36.7922 45.746 36.7922 46.8471V47.1653C36.7922 48.2632 36.2688 49.1574 34.3805 49.1574C33.9314 49.1642 33.484 49.1019 33.0554 48.9729V50.9873H31.707V45.014H32.0549ZM33.0653 46.1851V47.8336C33.4669 47.9504 33.8847 48.0073 34.3043 48.0022C35.4439 48.0022 35.4439 47.5217 35.4439 47.0062C35.4439 46.4906 35.4439 46.0101 34.3043 46.0101C33.8839 46.0102 33.466 46.0724 33.0653 46.1947V46.1851Z" fill="white"/>
<path d="M39.6312 49.0047V46.1788H38.0278V45.014H42.5896V46.1692H40.9796V48.9951L39.6312 49.0047Z" fill="white"/>
<path d="M48.1521 49.0047V44.944H45.959V43.6711H51.8691V44.944H49.6693V49.0047H48.1521Z" fill="white"/>
<path d="M53.4357 45.014L53.8896 45.2686C54.4671 44.981 55.1111 44.8387 55.7613 44.8549C57.6497 44.8549 58.1731 45.746 58.1731 46.8471V47.1653C58.1731 48.2632 57.6497 49.1574 55.7613 49.1574C55.3122 49.1642 54.8648 49.1019 54.4362 48.9729V50.9873H53.0879V45.014H53.4357ZM54.4462 46.1851V47.8336C54.8477 47.9504 55.2656 48.0073 55.6851 48.0022C56.8248 48.0022 56.8248 47.5217 56.8248 47.0062C56.8248 46.4906 56.8248 46.0101 55.6851 46.0101C55.2647 46.0102 54.8468 46.0724 54.4462 46.1947V46.1851Z" fill="white"/>
<path d="M64.6829 49.0047H64.3516L63.8977 48.7597C63.2955 49.0471 62.6286 49.187 61.9564 49.167C60.1377 49.167 59.6143 48.5305 59.6143 47.8272V47.7477C59.6143 47.0794 60.1774 46.5288 61.9332 46.5288C62.4076 46.5184 62.8812 46.5698 63.3412 46.6816C63.3246 46.2583 63.2054 46.0197 62.0922 46.0197C61.4132 46.0194 60.7367 46.0996 60.0781 46.2583V45.065C60.7549 44.9307 61.4442 44.8635 62.1353 44.8645C64.0137 44.8645 64.6895 45.4787 64.6895 46.6179L64.6829 49.0047ZM63.3346 48.0023V47.6267C62.9012 47.5242 62.4557 47.476 62.0094 47.4835C61.0156 47.4835 60.9559 47.6745 60.9559 47.8368C60.9559 47.9991 61.0222 48.155 62.0956 48.155C62.5131 48.1635 62.9296 48.112 63.3313 48.0023H63.3346Z" fill="white"/>
<path d="M67.502 45.014V46.4493H69.8806V45.014H71.229V48.9951H69.8806V47.5599H67.502V48.9919H66.1504V45.014H67.502Z" fill="white"/>
<path d="M72.7002 46.8566C72.7002 45.7555 73.2236 44.8645 75.1119 44.8645H75.3471C75.9332 44.8633 76.5172 44.9306 77.0864 45.0649V46.2488C76.5079 46.1013 75.9125 46.0243 75.314 46.0196C74.0485 46.0196 74.0485 46.4429 74.0485 47.0157C74.0485 47.5885 74.0485 48.0118 75.314 48.0118C75.9127 48.0074 76.5084 47.9294 77.0864 47.7795V48.9665C76.5169 49.0992 75.9331 49.1665 75.3471 49.167H75.1119C73.2236 49.167 72.7002 48.2727 72.7002 47.1748V46.8566Z" fill="white"/>
<path d="M87.0312 43.6711V49.0047H85.5139V44.944H82.7311V49.0047H81.2139V43.6711H87.0312Z" fill="white"/>
<path d="M88.883 45.014L89.3369 45.2686C89.9144 44.981 90.5583 44.8387 91.2086 44.8549C93.0969 44.8549 93.6203 45.746 93.6203 46.8471V47.1653C93.6203 48.2632 93.0969 49.1574 91.2086 49.1574C90.7595 49.1642 90.3121 49.1019 89.8835 48.9729V50.9873H88.5352V45.014H88.883ZM89.8934 46.1851V47.8336C90.295 47.9504 90.7129 48.0073 91.1324 48.0022C92.272 48.0022 92.272 47.5217 92.272 47.0062C92.272 46.4906 92.272 46.0101 91.1324 46.0101C90.712 46.0102 90.2941 46.0724 89.8934 46.1947V46.1851Z" fill="white"/>
<path d="M95.0518 46.8566C95.0518 45.7555 95.5752 44.8645 97.4635 44.8645H97.6987C99.587 44.8645 100.11 45.7555 100.11 46.8566V47.1748C100.11 48.2727 99.587 49.167 97.6987 49.167H97.4801C95.5918 49.167 95.0683 48.2727 95.0683 47.1748L95.0518 46.8566ZM97.5794 48.0118C98.7621 48.0118 98.7621 47.5313 98.7621 47.0157C98.7621 46.5002 98.7621 46.0197 97.5794 46.0197C96.3968 46.0197 96.4001 46.497 96.4001 47.0157C96.4001 47.5344 96.4001 48.0118 97.5794 48.0118Z" fill="white"/>
<path d="M103.95 49.167C102.062 49.167 101.538 48.2727 101.538 47.1748V46.8566C101.538 45.7555 102.062 44.8645 103.95 44.8645H104.188C106.11 44.8645 106.507 45.4373 106.507 46.1374V46.217C106.507 46.8534 106.305 47.4135 104.188 47.4135C103.748 47.4233 103.309 47.3751 102.883 47.2703C102.906 47.7254 103.075 48.0118 104.208 48.0118C104.871 48.0077 105.53 47.9276 106.173 47.7731V48.9665C105.496 49.0989 104.806 49.166 104.115 49.167H103.95ZM102.933 46.4174C103.319 46.5056 103.715 46.5462 104.112 46.5384C105.106 46.5384 105.156 46.3793 105.156 46.2201C105.156 46.061 105.106 45.8478 104.195 45.8478C103.284 45.8478 103.016 46.0578 102.933 46.4174Z" fill="white"/>
<path d="M111.579 49.0047L110.635 47.6044H109.287V49.0047H107.935V45.014H109.287V46.4079H110.635L111.579 45.0045H112.878V45.3227L111.758 46.9966L112.878 48.6673V48.9856L111.579 49.0047Z" fill="white"/>
<path d="M115.28 49.0047V46.1788H113.676V45.014H118.238V46.1692H116.628V48.9951L115.28 49.0047Z" fill="white"/>
</g>
<defs>
<clipPath id="clip0_109_344">
<rect width="118.238" height="51" fill="white"/>
</clipPath>
</defs>
</svg>
