<svg width="454" height="310" viewBox="0 0 454 310" fill="none" xmlns="http://www.w3.org/2000/svg">
<g clip-path="url(#clip0_1_328)">
<path d="M179.431 240.302C176.531 239.808 173.814 239.279 171.072 238.909C170.346 238.903 169.629 239.072 168.982 239.403C159.065 243.418 151.097 250.244 143.34 257.332C132.186 267.497 121.333 278.018 109.859 287.813C95.3515 300.205 77.9991 306.266 59.2612 308.647C47.5204 310.128 35.8684 309.793 24.4185 306.552C19.2754 305.071 14.3987 302.952 10.1432 299.637C1.22294 292.678 -0.961508 283.585 1.39553 272.827C5.29105 255.07 16.0653 243.404 32.5695 236.597C43.8616 231.944 55.7454 229.741 67.713 227.741C82.4075 225.271 97.1266 222.984 111.782 220.332C120.031 218.85 128.02 216.282 135.051 211.441C139.489 208.399 143.148 204.65 144.105 199.093C145.451 191.245 141.674 185.49 136.111 180.595C129.45 174.762 121.254 172.935 112.847 171.512C104.272 170.065 95.8693 167.976 88.3149 163.343C77.1363 156.492 72.4518 146.406 73.0287 133.47C73.8621 114.597 82.8908 100.352 97.531 89.1839C99.2865 87.8454 100.983 86.4574 102.871 84.9905L99.7401 78.4805C106.15 74.3018 112.482 70.2072 118.774 66.0582C119.435 65.6235 120.303 64.9024 120.372 64.2356C121.471 53.9322 127.467 46.8344 135.756 41.658C158.977 27.1563 183.79 16.2651 210.417 9.69586C227.13 5.62904 244.152 2.95923 261.306 1.71396C279.608 0.238178 297.994 0.107757 316.316 1.32375C352.051 3.84279 386.707 10.9702 419.276 26.4104C425.913 29.5518 432.146 33.5872 438.409 37.4547C443.833 40.7986 445.904 46.543 447.398 52.2429C449.222 59.1975 450.317 66.3397 451.644 73.4177C451.742 73.9413 451.289 74.7414 450.855 75.1613C449.119 76.8406 448.882 78.4509 450.179 80.3624C452.645 84.0273 453.596 87.6528 450.943 91.8462C448.009 96.4793 445.598 101.443 442.807 106.17C442.503 106.605 442.115 106.975 441.666 107.259C441.217 107.542 440.717 107.733 440.194 107.82C430.144 109.079 420.223 107.82 410.4 105.8C400.578 103.78 391.13 100.515 382.353 95.5556C375.129 91.4708 368.733 86.4327 364.542 79.0238C363.526 77.2308 363.008 75.5663 363.659 73.4325C365.104 68.7402 366.381 63.9935 367.604 59.2321C368.097 57.3057 368.994 55.9178 370.967 55.4486C373.363 54.8805 373.743 53.3 373.694 51.0625C373.541 44.2067 369.714 39.9737 363.107 39.8898C360.409 47.5556 357.628 55.2411 351.765 61.3362C345.902 67.4313 338.54 70.5035 330.429 72.5928C330.601 76.0503 330.71 79.4832 330.991 82.8913C331.035 83.4593 331.736 84.1014 332.293 84.4669C344.408 92.3698 350.474 103.893 352.017 118.015C352.19 119.595 352.702 120.484 354.053 121.24C363.841 126.831 374.049 131.405 385.035 134.082C386.726 134.492 387.501 135.391 387.831 137.016C390.824 152.634 393.65 168.287 396.894 183.85C400.055 199.009 399.818 214.36 400.272 229.692C400.469 236.424 400.893 243.157 400.903 249.889C400.858 252.748 400.417 255.587 399.592 258.325C398.773 261.195 396.376 262.963 393.605 263.704C389.66 264.751 385.652 265.853 381.623 266.09C372.298 266.638 362.949 266.732 353.605 266.92C342.209 267.152 330.818 267.354 319.423 267.468C303.51 267.631 287.598 267.715 271.685 267.804C249.742 267.922 227.799 268.214 205.861 267.991C200.052 267.932 194.229 266.406 188.479 265.23C186.467 264.82 184.534 263.6 182.774 262.469C181.564 261.752 180.577 260.713 179.923 259.466C179.269 258.22 178.974 256.816 179.071 255.411C179.219 250.966 179.322 246.52 179.441 242.104C179.441 241.546 179.431 240.988 179.431 240.302ZM274.323 88.3245L277.218 86.4327C275.216 86.6106 272.78 87.223 270.482 86.9267C266.562 86.4327 263.776 83.4692 263.953 80.7279C264.146 77.7643 267.543 74.9736 271.404 74.8007C273.056 74.7266 274.723 75.0378 276.902 75.2156C272.958 72.8003 269.269 72.5435 265.561 74.1784C262.533 75.5021 260.808 77.9223 260.901 81.3255C260.98 82.9419 261.594 84.4858 262.647 85.7131C263.7 86.9405 265.131 87.7812 266.715 88.1022C269.18 88.5962 271.828 88.2554 274.392 88.28C272.642 89.2679 270.872 90.2113 269.141 91.2436C257.913 97.9117 253.051 111.159 257.8 122.386C261.217 130.417 267.395 135.623 275.472 138.448C289.048 143.195 301.725 141.447 312.697 131.85C323.377 122.509 324.309 107.716 314.985 97.1066C307.495 88.5863 297.632 85.2967 286.533 85.9536C282.425 86.1808 278.382 87.4898 274.323 88.3245ZM245.536 85.2374C245.832 81.4836 246.124 77.7314 246.414 73.9808C228.361 69.6589 218.657 57.4243 214.071 40.033C213.149 40.3886 212.138 40.5763 211.374 41.1147C208.228 43.3226 204.909 45.3675 202.118 47.9705C196.107 53.5815 196.832 57.0094 204.224 60.6052C205.421 61.1983 206.36 62.2105 206.862 63.4502C208.489 68.597 209.914 73.8227 211.211 79.0584C211.466 80.3114 211.307 81.6136 210.758 82.7678C206.813 90.8732 200.126 96.2619 192.463 100.406C175.067 109.791 156.417 113.895 136.644 113.011C133.73 112.878 131.91 112.053 130.83 109.317C130.17 107.652 129.114 106.145 128.251 104.56C125.954 100.317 123.661 96.0693 121.348 91.7623L109.02 96.9386L106.772 92.9032C101.55 98.0154 96.3278 102.639 91.6975 107.79C85.4055 114.789 83.3148 123.596 82.3927 132.714C81.3128 143.625 85.5387 151.543 94.7203 156.334C102.181 160.226 110.307 161.727 118.468 163.091C129.76 164.968 139.538 169.541 147.039 178.472C156.334 189.545 155.771 204.556 145.559 214.775C140.288 220.06 133.858 223.488 126.871 225.82C109.686 231.564 91.7222 233.446 73.9458 236.192C62.6932 237.941 51.4751 239.788 40.6613 243.517C23.9796 249.266 12.658 259.787 9.86208 277.998C9.1668 282.533 10.2812 286.489 13.3138 289.853C17.1797 294.165 22.2784 296.407 27.7371 297.815C40.9769 301.228 54.276 300.531 67.4665 297.686C82.6146 294.422 96.3327 288.104 107.837 277.435C117.469 268.522 127.102 259.611 136.738 250.704C144.42 243.631 152.418 236.953 161.886 232.379C163.858 231.391 165.599 230.675 164.642 227.983C169.273 226.126 173.715 224.264 178.227 222.55C179.682 222.007 180.244 221.206 180.313 219.705C180.486 215.852 180.436 211.945 181.082 208.162C183.75 192.578 184.672 176.876 185.121 161.095C185.304 154.58 186.408 148.065 187.483 141.615C187.976 138.774 189.519 136.3 192.808 135.49C197.177 134.418 201.64 133.514 205.797 131.889C211.383 129.599 216.848 127.025 222.173 124.179C224.638 122.909 225.753 120.563 225.728 117.6C225.76 115.55 226.08 113.514 226.68 111.554C229.096 103.078 233.731 95.8816 239.856 89.6482C241.241 88.2356 243.066 87.2527 244.688 86.0722C242.168 90.562 242.528 93.7824 245.857 96.5929C249.377 99.5565 255.226 99.5861 258.184 97.0621C255.931 96.8794 253.16 96.9781 250.571 96.341C248.214 95.7631 246.325 94.0343 246.133 91.3424C245.94 88.6505 247.681 86.897 249.935 85.8598C251.485 85.1519 253.163 84.7687 254.866 84.7336C256.444 84.7336 258.031 85.4103 260.29 85.9586C258.944 85.1436 258.219 84.6052 257.42 84.2397C253.337 82.3973 249.377 83.0888 245.536 85.2226V85.2374ZM196.433 211.441H384.611V205.692H196.433V211.441ZM319.768 137.224L333.082 155.82C327.978 158.709 323.358 161.93 318.289 164.083C297.578 172.89 276.942 172.337 256.863 162.063C245.521 156.265 236.7 147.685 231.576 135.821C229.698 131.469 228.568 126.792 226.907 121.689C227.153 124.717 227.178 127.286 227.597 129.795C229.924 143.709 237.114 154.832 248.401 162.888C269.669 178.067 292.864 180.442 316.943 170.84C332.816 164.553 344.453 153.523 350.128 136.932C352.042 131.331 352.85 124.974 352.101 121.344C350.128 134.951 343.92 145.956 333.239 154.97V148.263L319.768 137.224ZM290.62 227.252C277.657 227.252 264.688 227.222 251.724 227.252C245.23 227.252 239.89 232.73 239.841 239.255C239.787 245.676 245.24 251.326 251.646 251.331C277.484 251.361 303.326 251.361 329.171 251.331C330.77 251.352 332.357 251.053 333.839 250.452C335.321 249.851 336.668 248.96 337.803 247.831C338.937 246.703 339.835 245.359 340.445 243.878C341.054 242.398 341.363 240.81 341.353 239.209C341.343 237.607 341.014 236.024 340.385 234.551C339.757 233.078 338.842 231.746 337.694 230.632C336.545 229.518 335.186 228.644 333.697 228.062C332.207 227.48 330.617 227.201 329.019 227.242C316.218 227.252 303.418 227.262 290.62 227.272V227.252ZM199.199 67.4708C177.951 80.5698 157.566 87.7911 132.374 91.1152C157.749 92.0784 180.007 84.0421 199.199 67.4906V67.4708ZM376.569 62.7735C386.13 76.08 430.267 91.7919 442.403 86.4821C418.957 83.6522 396.453 75.5545 376.569 62.7933V62.7735ZM250.225 102.56C246.429 98.7711 239.377 98.5291 235.541 102.219C234.202 103.454 233.4 105.167 233.308 106.988C233.216 108.809 233.841 110.594 235.048 111.959C238.455 115.91 244.787 116.365 248.539 113.54C246.266 113.298 243.283 113.337 240.521 112.552C238.056 111.875 236.271 109.87 236.458 107.039C236.636 104.387 238.529 102.881 240.847 101.922C243.889 100.673 246.882 101.038 250.225 102.56ZM260.383 134.813C256.877 130.965 250.521 130.234 246.32 133.178C244.432 134.507 243.179 136.255 243.09 138.695C243.041 140.345 243.512 141.968 244.435 143.335C245.358 144.702 246.687 145.743 248.233 146.312C252.287 147.912 257.602 146.806 260.068 143.842C255.6 146.149 251.049 145.843 248.011 143.017C245.477 140.661 245.511 137.643 248.1 135.347C251.448 132.363 256.103 132.18 260.383 134.813ZM275.906 145.65C271.745 142.326 266.503 142.192 262.593 145.156C259.057 147.838 258.598 152.432 261.532 155.696C265.098 159.648 272.124 159.806 276.883 155.479C272.469 157.875 268.732 157.731 265.226 155.272C261.991 153.005 261.942 149.246 265.023 146.816C268.362 144.173 272.035 144.218 275.892 145.65H275.906ZM317.702 156.981C317.633 156.936 317.544 156.842 317.495 156.857C317.041 157.01 316.597 157.183 316.148 157.351C313.032 158.458 310.024 158.245 307.223 156.442C303.076 153.765 303.278 149.285 307.613 146.87C310.907 145.033 314.265 144.86 317.672 146.742C314.147 143.353 308.17 142.978 304.359 145.754C300.014 148.92 300.093 154.758 304.516 157.781C306.504 159.097 308.864 159.731 311.242 159.586C313.621 159.442 315.888 158.528 317.702 156.981ZM248.889 129.815C246.917 129.908 245.048 130.17 243.204 130.042C239.816 129.805 236.675 126.984 236.468 124.238C236.261 121.492 238.539 118.77 242.168 118.207C244.787 117.807 247.543 118.316 249.713 118.395C247.247 116.241 243.643 115.644 239.939 116.454C236.882 117.126 234.431 118.923 233.529 122.248C232.799 124.989 233.726 127.291 235.635 129.163C238.879 132.319 244.925 132.595 248.889 129.785V129.815ZM296.957 70.8048C294.048 67.6733 287.721 67.8758 285.063 69.3724C280.941 71.6939 279.531 76.3418 281.942 80.0117C284.93 84.5509 293.106 85.2918 296.937 81.37C292.169 82.8073 289.472 82.6147 286.676 80.6538C282.8 77.9322 282.908 73.7388 286.991 71.3234C290.152 69.4268 293.481 69.2736 296.957 70.7752V70.8048ZM295.931 160.927C292.77 162.439 289.624 162.567 286.488 160.977C284.319 159.875 282.578 158.245 282.642 155.706C282.706 153.059 284.615 151.483 286.873 150.421C287.524 150.071 288.242 149.866 288.979 149.819C291.346 149.858 293.712 150.046 295.571 150.145C292.401 147.31 286.567 146.979 282.711 149.819C278.47 152.94 278.485 158.611 282.736 161.722C286.518 164.474 292.272 164.202 295.931 160.898V160.927ZM317.179 74.1438C314.433 71.7877 311.153 71.2543 307.771 72.0051C301.853 73.3189 299.25 79.5622 302.603 83.8594C306.055 88.3047 313.806 88.6159 318.224 84.1113C314.501 86.334 311.134 86.2747 307.8 84.6052C305.793 83.6174 303.979 81.9479 304.349 79.7005C304.754 77.8272 305.8 76.1549 307.307 74.9736C310.236 72.7114 313.688 72.8201 317.179 74.1141V74.1438Z" stroke="#00A5FE" stroke-width="2" stroke-miterlimit="10"/>
<path d="M288.199 51.5662H254.259C250.916 51.5662 249.328 50.3412 249.328 47.8123C249.328 45.1352 250.995 43.7966 254.343 43.7966H321.489C322.063 43.7744 322.638 43.7892 323.21 43.8411C325.518 44.1572 326.987 45.8613 326.834 48.0099C326.691 50.0597 325.143 51.5217 322.889 51.5563C318.875 51.6106 314.856 51.5563 310.838 51.5563L288.199 51.5662Z" stroke="#00A5FE" stroke-width="2" stroke-miterlimit="10"/>
<path d="M287.134 87.297C298.288 87.791 305.631 90.3742 311.765 95.9853C322.258 105.587 322.376 120.529 312.07 130.353C299.62 142.207 277.119 142.207 265.27 130.383C253.835 118.948 255.235 102.89 268.51 93.5502C274.974 89.0011 282.243 87.1983 287.134 87.297ZM294.186 120.193C301.262 117.116 302.233 109.148 296.158 104.693C294.001 103.183 291.442 102.355 288.81 102.315C286.179 102.275 283.596 103.026 281.395 104.471C275.724 108.309 275.601 115.416 281.37 119.131C286.582 122.406 292.489 120.924 294.186 120.193Z" stroke="#00A5FE" stroke-width="2" stroke-miterlimit="10"/>
</g>
<defs>
<clipPath id="clip0_1_328">
<rect width="453.019" height="310" fill="white"/>
</clipPath>
</defs>
</svg>
