<svg width="47" height="47" viewBox="0 0 47 47" fill="none" xmlns="http://www.w3.org/2000/svg">
<g clip-path="url(#clip0_1_156)">
<path d="M43.0834 14.7561V33.2917C43.0834 34.7903 42.5109 36.2322 41.4828 37.3225C40.4548 38.4128 39.049 39.069 37.553 39.1569L37.2084 39.1667H9.79169C8.29315 39.1668 6.85122 38.5943 5.76093 37.5662C4.67063 36.5382 4.01439 35.1324 3.92648 33.6364L3.91669 33.2917V14.7561L22.4131 27.0877L22.6403 27.217C22.908 27.3478 23.2021 27.4158 23.5 27.4158C23.798 27.4158 24.092 27.3478 24.3597 27.217L24.5869 27.0877L43.0834 14.7561Z" fill="#E23535"/>
<path d="M37.2084 7.83325C39.3234 7.83325 41.1779 8.9495 42.2119 10.6278L23.5 23.1024L4.78815 10.6278C5.27916 9.8303 5.95377 9.16179 6.7557 8.67804C7.55763 8.1943 8.46361 7.90935 9.39806 7.84696L9.79169 7.83325H37.2084Z" fill="#E23535"/>
</g>
<defs>
<clipPath id="clip0_1_156">
<rect width="47" height="47" fill="white"/>
</clipPath>
</defs>
</svg>
