<svg width="38" height="39" viewBox="0 0 38 39" fill="none" xmlns="http://www.w3.org/2000/svg">
<path d="M37.9779 28.9548C37.6391 31.5486 36.3747 33.9295 34.4208 35.6528C32.467 37.3761 29.9573 38.3239 27.3605 38.3192C12.2742 38.3192 1.71927e-05 25.9532 1.71927e-05 10.7542C-0.00463785 8.13803 0.936139 5.60958 2.64664 3.64112C4.35713 1.67266 6.72038 0.398816 9.29498 0.0574955C9.94603 -0.0225942 10.6053 0.111595 11.1745 0.440033C11.7436 0.76847 12.192 1.27354 12.4528 1.87985L16.4657 10.9055V10.9284C16.6654 11.3925 16.7478 11.8992 16.7057 12.4033C16.6636 12.9073 16.4983 13.393 16.2244 13.817C16.1902 13.8687 16.1541 13.9165 16.1161 13.9644L12.1602 18.6887C13.5834 21.6022 16.6082 24.6228 19.5381 26.0604L24.1627 22.0961C24.2081 22.0576 24.2557 22.0218 24.3052 21.9889C24.7257 21.7063 25.2094 21.5339 25.7127 21.4871C26.216 21.4403 26.7229 21.5206 27.1876 21.7209L27.2123 21.7324L36.1633 25.7733C36.7662 26.0351 37.2688 26.4865 37.5958 27.06C37.9229 27.6334 38.0569 28.2982 37.9779 28.9548Z" fill="#E23535"/>
</svg>
