<svg width="20" height="20" viewBox="0 0 20 20" fill="none" xmlns="http://www.w3.org/2000/svg">
<g clip-path="url(#clip0_1_174)">
<path d="M18.3333 6.27905V14.1666C18.3334 14.8042 18.0897 15.4178 17.6523 15.8818C17.2148 16.3457 16.6166 16.625 15.98 16.6624L15.8333 16.6666H4.16667C3.529 16.6666 2.91541 16.4229 2.45145 15.9855C1.9875 15.548 1.70825 14.9498 1.67084 14.3132L1.66667 14.1666V6.27905L9.53751 11.5266L9.63417 11.5816C9.74809 11.6372 9.87321 11.6661 10 11.6661C10.1268 11.6661 10.2519 11.6372 10.3658 11.5816L10.4625 11.5266L18.3333 6.27905Z" fill="white"/>
<path d="M15.8333 3.33325C16.7333 3.33325 17.5225 3.80825 17.9625 4.52242L10 9.83075L2.03751 4.52242C2.24645 4.18306 2.53352 3.89859 2.87476 3.69274C3.21601 3.48689 3.60153 3.36563 3.99917 3.33909L4.16667 3.33325H15.8333Z" fill="white"/>
</g>
<defs>
<clipPath id="clip0_1_174">
<rect width="20" height="20" fill="white"/>
</clipPath>
</defs>
</svg>
