<svg width="20" height="21" viewBox="0 0 20 21" fill="none" xmlns="http://www.w3.org/2000/svg">
<path d="M19.9884 15.221C19.81 16.5862 19.1446 17.8393 18.1162 18.7462C17.0879 19.6532 15.767 20.1521 14.4003 20.1496C6.46012 20.1496 9.0488e-06 13.6412 9.0488e-06 5.64175C-0.00244097 4.2648 0.492705 2.93404 1.39297 1.89801C2.29323 0.861975 3.53704 0.191528 4.89209 0.011886C5.23475 -0.0302665 5.58175 0.0403596 5.8813 0.213221C6.18084 0.386083 6.41686 0.651909 6.55412 0.971017L8.66616 5.72134V5.73343C8.77125 5.9777 8.81465 6.24439 8.79249 6.50968C8.77032 6.77496 8.68329 7.03059 8.53916 7.25373C8.52116 7.28093 8.50216 7.30612 8.48215 7.33131L6.40012 9.8178C7.14913 11.3512 8.74116 12.941 10.2832 13.6976L12.7172 11.6111C12.7411 11.5909 12.7662 11.572 12.7922 11.5547C13.0135 11.406 13.2681 11.3152 13.533 11.2906C13.7979 11.266 14.0647 11.3083 14.3093 11.4137L14.3223 11.4197L19.0333 13.5465C19.3506 13.6843 19.6151 13.9219 19.7873 14.2237C19.9594 14.5255 20.03 14.8754 19.9884 15.221Z" fill="white"/>
</svg>
